<?xml version="1.0" standalone="no"?>
<!DOCTYPE svg PUBLIC "-//W3C//DTD SVG 1.1//EN" "http://www.w3.org/Graphics/SVG/1.1/DTD/svg11.dtd" >
<svg xmlns="http://www.w3.org/2000/svg" xmlns:xlink="http://www.w3.org/1999/xlink" version="1.1">
<metadata></metadata>
<defs>
<font id="kingsbridgeexpanded" horiz-adv-x="1597" >
<font-face units-per-em="2048" ascent="1634" descent="-414" />
<missing-glyph horiz-adv-x="755" />
<glyph unicode="&#x28;C&#x29;" horiz-adv-x="1906" d="M113 805q0 225 75.5 385t196.5 260t270.5 146t296.5 46q145 0 295 -46t270.5 -146t197.5 -260t77 -385t-77 -384t-197.5 -260.5t-270 -147.5t-295.5 -46q-98 0 -198.5 20.5t-193.5 63.5t-175 109.5t-142.5 160t-95 214t-34.5 270.5zM248 805q0 -190 61.5 -326.5 t161.5 -222.5t226 -127t255 -41t256 41t226.5 127t162 222t62.5 327q0 190 -62.5 326.5t-162 223.5t-226.5 127t-256 40t-255 -40t-226 -127t-161.5 -223.5t-61.5 -326.5zM637 836q0 98 18.5 181t56.5 143.5t96 94t138 33.5q55 0 102.5 -16.5t81 -46t53 -69.5t19.5 -87v-51 h-110v53q0 61 -41 93t-103 32q-92 0 -136 -83t-44 -279q0 -84 9 -152t29.5 -115t54.5 -72.5t85 -25.5q57 0 107.5 35t50.5 106v29h104v-29q0 -59 -24.5 -103t-63.5 -74t-87 -45t-97 -15q-76 0 -132 35.5t-93 97t-55.5 146.5t-18.5 184z" />
<glyph unicode="&#x28;R&#x29;" horiz-adv-x="1906" d="M113 805q0 225 75.5 385t196.5 260t270.5 146t296.5 46q145 0 295 -46t270.5 -146t197.5 -260t77 -385t-77 -384t-197.5 -260.5t-270 -147.5t-295.5 -46q-98 0 -198.5 20.5t-193.5 63.5t-175 109.5t-142.5 160t-95 214t-34.5 270.5zM248 805q0 -190 61.5 -326.5 t161.5 -222.5t226 -127t255 -41t256 41t226.5 127t162 222t62.5 327q0 190 -62.5 326.5t-162 223.5t-226.5 127t-256 40t-255 -40t-226 -127t-161.5 -223.5t-61.5 -326.5zM705 393v879h235q80 0 137.5 -19.5t94 -53.5t54 -80t17.5 -99q0 -164 -170 -217l109 -262 q25 -63 88 -64q10 0 25.5 2t27.5 6v-92q-16 -8 -41 -13t-51 -5q-66 0 -105 37t-65 108l-94 258h-140v-385h-122zM827 856h117q92 0 136 35t44 121q0 168 -180 168h-117v-324z" />
<glyph horiz-adv-x="0" />
<glyph unicode="&#xd;" horiz-adv-x="755" />
<glyph horiz-adv-x="755" />
<glyph unicode=" "  horiz-adv-x="755" />
<glyph unicode="&#x09;" horiz-adv-x="755" />
<glyph unicode="&#xa0;" horiz-adv-x="755" />
<glyph unicode="!" horiz-adv-x="593" d="M106 1610h379l-118 -1139h-140zM180 0v299h238v-299h-238z" />
<glyph unicode="&#x22;" horiz-adv-x="759" d="M88 975zM88 1610h215l-45 -635h-125zM457 1610h215l-45 -635h-125z" />
<glyph unicode="#" horiz-adv-x="1820" d="M76 494l37 159h321l90 308h-321l37 159h325l137 490h234l-139 -490h391l139 490h232l-136 -490h322l-41 -159h-322l-92 -308h326l-39 -159h-328l-137 -494h-231l139 494h-389l-142 -494h-231l139 494h-321zM670 653h389l88 308h-387z" />
<glyph unicode="$" horiz-adv-x="1374" d="M102 152v426h220v-160q53 -80 150 -119t200 -39v463q-98 41 -192.5 82t-169 90t-121 112.5t-46.5 147.5q0 68 33 127t95.5 103.5t153.5 70t210 25.5h37v229h80v-237q80 -10 149.5 -33t120.5 -64h12v84h213v-383h-219v146q-45 53 -117.5 83.5t-158.5 39.5v-426 q90 -35 182 -78t167 -96.5t122 -120t47 -150.5q0 -72 -37 -134t-104.5 -108.5t-164 -74t-212.5 -29.5v-231h-80v231q-90 4 -180.5 26.5t-157.5 69.5h-12v-73h-220zM410 1171q0 -63 58 -111t204 -108v394q-119 -4 -190.5 -51.5t-71.5 -123.5zM752 264q98 16 163.5 65.5 t65.5 125.5q0 72 -65.5 125t-163.5 104v-420z" />
<glyph unicode="%" horiz-adv-x="1720" d="M147 0zM147 1167q0 246 63.5 354.5t223.5 108.5q158 0 220.5 -108.5t62.5 -354.5q0 -244 -62.5 -352t-220.5 -108q-160 0 -223.5 108.5t-63.5 351.5zM149 0l1260 1610h159l-1255 -1610h-164zM293 1167q0 -109 5 -178t20.5 -111t43 -58.5t70.5 -16.5t70.5 16.5t43 58.5 t21.5 111.5t6 177.5q0 109 -6 179.5t-21.5 112.5t-43 58.5t-70.5 16.5t-70.5 -17.5t-43 -58.5t-20.5 -112.5t-5 -178.5zM1001 442q0 246 63.5 354.5t223.5 108.5q158 0 220.5 -108.5t62.5 -354.5q0 -244 -62.5 -352t-220.5 -108q-160 0 -223.5 108.5t-63.5 351.5zM1147 442 q0 -109 5 -178t20.5 -111t43 -58.5t70.5 -16.5t70.5 16.5t43 58.5t21.5 111.5t6 177.5q0 109 -6 179.5t-21.5 112.5t-43 58.5t-70.5 16.5t-70.5 -17.5t-43 -58.5t-20.5 -112.5t-5 -178.5z" />
<glyph unicode="&#x26;" horiz-adv-x="1875" d="M57 324q0 88 39 160.5t104.5 132t151.5 110.5t178 96q-59 66 -102 121t-70.5 106.5t-41 99.5t-13.5 101q0 74 27.5 144.5t90 126t163 88t243.5 32.5q131 0 222.5 -28.5t148.5 -75.5t83 -110.5t26 -133.5q0 -63 -21.5 -118.5t-74 -107.5t-138.5 -106.5t-213 -115.5 l436 -447q82 104 146.5 242.5t122.5 314.5h221q-66 -217 -153 -390t-208 -300q76 -78 137.5 -101.5t123.5 -23.5q27 0 57.5 3t66.5 14v-158q-57 -14 -117.5 -23.5t-123.5 -9.5q-98 0 -187.5 30t-169.5 103q-115 -66 -253 -99.5t-308 -33.5q-285 0 -439.5 91.5t-154.5 265.5z M330 381q0 -133 103.5 -190.5t277.5 -57.5q225 0 383 90l-476 506q-152 -80 -220 -162t-68 -186zM565 1272q0 -72 49.5 -147.5t157.5 -188.5q76 37 137.5 71.5t104.5 73.5t65.5 86t22.5 107q0 88 -57.5 145.5t-200.5 57.5q-74 0 -127 -16.5t-87 -44t-49.5 -65.5t-15.5 -79z " />
<glyph unicode="'" horiz-adv-x="391" d="M88 1610h215l-45 -635h-125z" />
<glyph unicode="(" horiz-adv-x="1110" d="M254 727q0 199 50 375t133 317.5t187.5 242.5t215.5 148h217q-125 -72 -226.5 -188.5t-173 -260.5t-110.5 -308t-39 -326q0 -164 39 -326.5t110.5 -307t173 -261.5t226.5 -186h-217q-111 47 -215.5 147.5t-187.5 241.5t-133 317t-50 375z" />
<glyph unicode=")" horiz-adv-x="1110" d="M45 -354q125 70 227.5 186.5t174 261t110.5 307t39 326.5q0 162 -39 326t-110.5 308t-174 261t-227.5 188h219q109 -47 214.5 -148t187.5 -242.5t132 -317.5t50 -375t-50 -375t-132 -317t-187.5 -241.5t-214.5 -147.5h-219z" />
<glyph unicode="*" horiz-adv-x="1048" d="M96 1042l322 160l-322 162l74 123l301 -197l-20 361h145l-21 -361l302 197l73 -123l-321 -162l321 -160l-73 -122l-302 194l21 -356h-145l20 356l-301 -194z" />
<glyph unicode="+" horiz-adv-x="1349" d="M119 729v156h475v473h166v-473h469v-156h-469v-471h-166v471h-475z" />
<glyph unicode="," horiz-adv-x="428" d="M92 -315v634h252l-115 -634h-137z" />
<glyph unicode="-" horiz-adv-x="1064" d="M119 678v166h825v-166h-825z" />
<glyph unicode="." horiz-adv-x="430" d="M96 0v299h238v-299h-238z" />
<glyph unicode="/" horiz-adv-x="1419" d="M27 -289l1122 1964h242l-1123 -1964h-241z" />
<glyph unicode="0" horiz-adv-x="1499" d="M119 805q0 223 32.5 382t106.5 260t194 149.5t296 48.5t296.5 -48.5t194.5 -149.5t106.5 -260t32.5 -382q0 -221 -32.5 -380t-106.5 -260.5t-194.5 -149.5t-296.5 -48t-296 48t-194 149.5t-106.5 260.5t-32.5 380zM408 805q0 -199 15 -331t54 -210t104.5 -110.5 t168.5 -32.5q100 0 166.5 32.5t104.5 111.5t53.5 210t15.5 330t-15.5 331t-53.5 210.5t-104.5 111.5t-166.5 33q-102 0 -168 -33t-105 -111.5t-54 -210.5t-15 -331z" />
<glyph unicode="1" horiz-adv-x="1046" d="M119 0v150h260v1101h-260v144h119q104 0 162.5 49t68.5 166h217v-1460h242v-150h-809z" />
<glyph unicode="2" horiz-adv-x="1402" d="M106 0v186q0 106 29 189.5t87.5 156t148.5 139t213 144.5q104 66 184 113t132 92t79 93t27 114q0 53 -17.5 99t-57.5 81t-102.5 54.5t-150.5 19.5q-158 0 -247 -65.5t-89 -205.5v-55h-197v55q0 213 145.5 322.5t414.5 109.5q156 0 265 -35.5t179 -96t100.5 -139.5 t30.5 -163t-29.5 -149.5t-93 -127t-162 -127t-233.5 -149.5q-100 -61 -176 -110t-127 -98.5t-77 -104.5t-26 -131v-41h715v283h217v-453h-1182z" />
<glyph unicode="3" horiz-adv-x="1431" d="M125 399v56h207v-56q0 -139 89 -204.5t236 -65.5q182 0 268.5 91t86.5 249t-80 225.5t-211 67.5h-240v166h240q129 0 200.5 59.5t71.5 204.5q0 66 -17.5 119t-55 91t-100 58.5t-152.5 20.5q-160 0 -245 -65.5t-85 -205.5v-55h-193v55q0 213 142.5 322.5t410.5 109.5 q156 0 263.5 -35.5t173 -96t94 -138.5t28.5 -162q0 -143 -71.5 -232t-194.5 -128q63 -16 121.5 -47t103 -79t70 -113.5t25.5 -151.5q0 -98 -37 -187.5t-113 -157t-191.5 -107.5t-273.5 -40q-127 0 -232.5 28t-180 82t-116.5 135t-42 187z" />
<glyph unicode="4" horiz-adv-x="1630" d="M27 432v21l1167 1198h31v-1096h331v-123h-331v-282h198v-150h-757v150h264v282h-903zM360 555h570v590h-8l-562 -582v-8z" />
<glyph unicode="5" horiz-adv-x="1425" d="M115 399v56h196v-56q0 -70 25.5 -120t70 -83.5t106.5 -50t136 -16.5q352 0 352 379q0 92 -21.5 169t-68.5 132t-121.5 87t-183.5 32q-98 0 -214 -28t-220 -87l-27 18l129 779h988v-461h-220v305h-530l-76 -434q25 12 62 21.5t77.5 14.5t82.5 8t79 3q150 0 256.5 -44 t175 -119t100 -176t31.5 -214q0 -125 -37.5 -225.5t-113.5 -172t-190.5 -110.5t-268.5 -39q-129 0 -234.5 28t-181 82t-117.5 135t-42 187z" />
<glyph unicode="6" horiz-adv-x="1476" d="M119 723q0 225 33.5 397t110.5 288t204 175t311 59q256 0 403.5 -109.5t147.5 -322.5v-55h-194v55q0 139 -90.5 205t-239.5 66q-98 0 -169 -30t-119 -98.5t-74.5 -182t-34.5 -279.5h8q92 61 195.5 96t240.5 35q158 0 261.5 -45t163.5 -118t84.5 -163t24.5 -182 q0 -111 -33.5 -210t-110.5 -174t-202 -119t-307 -44q-190 0 -310 50.5t-187.5 147.5t-92 237.5t-24.5 320.5zM412 653q0 -139 14 -238.5t52 -164t102.5 -94t167.5 -29.5q188 0 269 99.5t81 291.5q0 176 -72 272.5t-252 96.5q-209 0 -362 -139v-95z" />
<glyph unicode="7" horiz-adv-x="1329" d="M96 1149v461h1186v-21q-119 -193 -223.5 -386t-187.5 -392t-143 -400.5t-93 -410.5h-326q86 385 253 742.5t413 711.5h-660v-305h-219z" />
<glyph unicode="8" horiz-adv-x="1388" d="M84 379q0 80 31.5 148.5t88 127t135.5 106.5t175 89q-162 90 -252 183t-90 222q0 82 38 154t108.5 123t172 80.5t226.5 29.5q121 0 218 -27.5t165.5 -75.5t105.5 -113.5t37 -143.5q0 -127 -94 -222t-254 -171q98 -55 173 -106.5t127 -106.5t78.5 -117.5t26.5 -140.5 q0 -100 -44 -181t-124.5 -138.5t-194.5 -88t-253 -30.5q-129 0 -238.5 26.5t-190.5 77.5t-126 125t-45 170zM317 406q0 -131 95.5 -200t249.5 -69q74 0 138 16.5t110 48t73 80t27 111.5q0 61 -26 109.5t-75 91.5t-117.5 85t-154.5 91q-70 -33 -128 -69.5t-101 -81t-67 -97.5 t-24 -116zM442 1266q0 -49 21.5 -87t63.5 -74t103.5 -71t141.5 -76q139 66 201.5 139.5t62.5 162.5q0 102 -74.5 159.5t-213.5 57.5q-143 0 -224.5 -58.5t-81.5 -152.5z" />
<glyph unicode="9" horiz-adv-x="1464" d="M84 1085q0 115 34 216.5t110.5 177t198.5 119.5t298 44q125 0 239.5 -28.5t200.5 -100t137.5 -197.5t51.5 -319q0 -182 -44 -332.5t-116 -273.5t-163 -220t-185 -171h-346q90 43 184 126t174 182.5t136.5 203.5t68.5 190h-8q-86 -55 -202 -85.5t-245 -30.5 q-166 0 -268 48t-158.5 121.5t-77 162t-20.5 167.5zM375 1081q0 -78 13 -143.5t47 -113.5t93.5 -74.5t153.5 -26.5q51 0 106.5 8t105.5 24.5t93 40t74 52.5v102q0 139 -14.5 240.5t-52.5 166t-104.5 95.5t-168.5 31q-188 0 -267 -101.5t-79 -300.5z" />
<glyph unicode=":" horiz-adv-x="497" d="M129 152v299h240v-299h-240zM129 840v299h240v-299h-240z" />
<glyph unicode=";" horiz-adv-x="495" d="M129 -184v635h252l-115 -635h-137zM129 819v320h240v-320h-240z" />
<glyph unicode="&#x3c;" horiz-adv-x="1349" d="M119 727v160l1110 426v-174l-883 -330v-8l883 -328v-172z" />
<glyph unicode="=" horiz-adv-x="1349" d="M119 508v158h1110v-158h-1110zM119 952v158h1110v-158h-1110z" />
<glyph unicode="&#x3e;" horiz-adv-x="1349" d="M119 301v172l882 328v8l-882 330v174l1110 -426v-160z" />
<glyph unicode="?" horiz-adv-x="1290" d="M82 1155v55q0 213 145.5 322.5t415.5 109.5q156 0 264.5 -34.5t177 -94t99 -136.5t30.5 -163q0 -82 -25.5 -143t-66.5 -109.5t-95 -88t-112 -76.5q-66 -43 -105.5 -78t-62 -69t-30.5 -70.5t-8 -83.5v-27h-226v23q0 57 10.5 106t35 95t68.5 92t112 98q43 33 85 63.5 t74.5 67.5t52 84t19.5 114q0 53 -15.5 102.5t-52 86.5t-99 58.5t-157.5 21.5q-158 0 -249 -65.5t-91 -205.5v-55h-194zM477 0v299h240v-299h-240z" />
<glyph unicode="@" horiz-adv-x="2084" d="M113 553q0 211 34.5 367.5t98 268t151.5 183.5t194.5 113t229.5 57.5t254 16.5q197 0 359.5 -36t280.5 -128t183.5 -253t65.5 -413q0 -184 -34 -294.5t-89 -170t-124.5 -79t-141.5 -19.5q-92 0 -150.5 22.5t-93.5 67.5h-8q-49 -39 -125 -64.5t-166 -25.5 q-166 0 -254 106.5t-88 343.5q0 127 25.5 215.5t70.5 142.5t107.5 77.5t136.5 23.5q82 0 150.5 -24.5t124.5 -65.5l4 74h161v-701q0 -35 29 -55t88 -20q33 0 67 12t60.5 55t43 126t16.5 224q0 229 -46.5 371.5t-134.5 221.5t-213 106.5t-284 27.5q-166 0 -303.5 -31.5 t-235.5 -122.5t-152.5 -256t-54.5 -433q0 -250 48 -399.5t145.5 -229.5t244 -105.5t340.5 -25.5q248 0 406 26.5t252 71.5v-182q-41 -18 -98.5 -35.5t-136 -31t-182 -21.5t-236.5 -8q-258 0 -449.5 37.5t-318.5 139t-189.5 278.5t-62.5 454zM881 625q0 -160 49 -242t153 -82 q53 0 105.5 19.5t91.5 52.5v495q-49 41 -102.5 56.5t-98.5 15.5q-96 0 -147 -71.5t-51 -243.5z" />
<glyph unicode="A" horiz-adv-x="1622" d="M82 0v156h151l584 1495h21l557 -1495h143v-156h-620v156h178l-68 200h-448l-72 -200h178v-156h-604zM604 485h402l-193 547h-8z" />
<glyph unicode="B" d="M119 0v156h200v1298h-200v156h684q143 0 259 -25.5t197.5 -78t126 -130.5t44.5 -184q0 -125 -68 -213t-221 -129q360 -86 360 -406q0 -84 -28.5 -163.5t-101.5 -142t-195.5 -100.5t-309.5 -38h-747zM629 156h229q176 0 254 84t78 231q0 88 -26.5 146.5t-73 94.5t-112 50 t-140.5 14h-209v-620zM629 915h202q68 0 126.5 13.5t100.5 45.5t65.5 83t23.5 127q0 147 -87 208.5t-231 61.5h-200v-539z" />
<glyph unicode="C" horiz-adv-x="1427" d="M113 815q0 174 36.5 324.5t113.5 262t194.5 176t281.5 64.5q121 0 208 -34.5t132 -94.5h8v97h211v-461h-219v98q0 119 -74.5 177.5t-201.5 58.5q-98 0 -167 -38t-113 -118t-63.5 -206t-19.5 -300q0 -164 18.5 -292t61.5 -217t116 -136t181 -47q61 0 115.5 16.5t94.5 50 t63.5 84t23.5 119.5v56h193v-56q0 -106 -39 -187t-108.5 -135t-165 -82t-206.5 -28q-176 0 -303 64.5t-209.5 178.5t-122.5 268.5t-40 336.5z" />
<glyph unicode="D" horiz-adv-x="1640" d="M119 0v156h200v1298h-200v156h659q195 0 336 -62.5t232.5 -173t135.5 -262t44 -330.5q0 -178 -44 -322.5t-135.5 -246.5t-232.5 -157.5t-336 -55.5h-659zM629 156h164q102 0 178 34.5t127 110.5t75.5 194.5t24.5 286.5q0 672 -405 672h-164v-1298z" />
<glyph unicode="E" horiz-adv-x="1519" d="M119 0v156h200v1298h-200v156h1267v-461h-219v305h-538v-528h733v-168h-733v-602h545v368h219v-524h-1274z" />
<glyph unicode="F" horiz-adv-x="1476" d="M119 0v156h200v1298h-200v156h1267v-461h-219v305h-538v-528h733v-168h-733v-602h243v-156h-753z" />
<glyph unicode="G" horiz-adv-x="1523" d="M113 801q0 182 40 336.5t120.5 266.5t202.5 175t286 63q125 0 216 -34.5t138 -94.5h8v97h211v-461h-219v98q0 59 -22.5 103.5t-62.5 74t-93 44t-117 14.5q-100 0 -171.5 -38t-118 -121t-68 -212t-21.5 -313q0 -164 18.5 -289t63.5 -209t120 -128t190 -44q53 0 123.5 10.5 t119.5 34.5v584h-340v168h606v-830q-41 -29 -100 -52.5t-127.5 -40.5t-143.5 -26.5t-149 -9.5q-197 0 -332 65.5t-219 178.5t-121.5 265.5t-37.5 324.5z" />
<glyph unicode="H" horiz-adv-x="1818" d="M119 0v156h200v1298h-200v156h694v-156h-184v-510h534v510h-186v156h721v-156h-223v-1298h223v-156h-721v156h186v622h-534v-622h184v-156h-694z" />
<glyph unicode="I" horiz-adv-x="950" d="M119 0v156h200v1298h-200v156h710v-156h-200v-1298h200v-156h-710z" />
<glyph unicode="J" horiz-adv-x="1525" d="M78 399v56h223v-47q0 -145 85 -211t224 -66q178 0 249 99.5t71 277.5v946h-240v156h750v-156h-199v-944q0 -102 -25.5 -199.5t-93 -173.5t-186.5 -123t-303 -47q-129 0 -231.5 25.5t-174 78t-110.5 134.5t-39 194z" />
<glyph unicode="K" horiz-adv-x="1763" d="M119 0v156h200v1298h-200v156h684v-156h-174v-557h8l537 557h-220v156h678v-156h-200l-324 -344l242 -842q16 -59 69.5 -93t134.5 -34q29 0 69 4.5t75 12.5v-158q-70 -16 -132.5 -24.5t-121.5 -8.5q-154 0 -257.5 64.5t-133.5 195.5l-156 658l-268 -287v-442h182v-156 h-692z" />
<glyph unicode="L" horiz-adv-x="1474" d="M119 0v156h227v1298h-227v156h782v-156h-244v-1298h492v368h219v-524h-1249z" />
<glyph unicode="M" horiz-adv-x="2269" d="M119 0v156h200v1298h-200v156h565l457 -1071h8l461 1071h538v-156h-200v-1298h200v-156h-632v156h180v1036h-8l-547 -1233h-21l-538 1225h-9v-1028h179v-156h-633z" />
<glyph unicode="N" horiz-adv-x="1695" d="M119 0v156h200v1298h-200v156h475l547 -889h8v733h-199v156h662v-156h-197v-1495h-20l-801 1171h-8v-974h205v-156h-672z" />
<glyph unicode="O" d="M113 782q0 168 41 323t124.5 274.5t213 191t305.5 71.5t305 -71.5t214 -191t126 -274.5t41 -323t-41 -316.5t-126 -259t-214 -175t-305 -64.5t-305.5 64.5t-213 175t-124.5 259t-41 316.5zM442 782q0 -154 20.5 -274.5t63.5 -205.5t111 -130t160 -45q94 0 161.5 45 t110.5 130t63.5 206t20.5 274q0 154 -20.5 283t-63.5 221t-110.5 144.5t-161.5 52.5q-92 0 -160 -52.5t-111 -144.5t-63.5 -221t-20.5 -283z" />
<glyph unicode="P" d="M119 0v156h200v1298h-200v156h708q182 0 313.5 -39t215.5 -108.5t124 -166t40 -209.5t-40 -203.5t-124 -155t-215 -99.5t-314 -35h-198v-438h264v-156h-774zM629 752h215q182 0 267 78.5t85 259.5q0 180 -85 272t-267 92h-215v-702z" />
<glyph unicode="Q" d="M113 805q0 162 41 313.5t124.5 268t213 186t305.5 69.5t305 -69.5t214 -186t126 -268t41 -313.5q0 -139 -30 -266t-91.5 -228.5t-155.5 -174.5t-223 -103q14 -53 42 -88t64.5 -55.5t80.5 -28.5t92 -8q39 0 81.5 4t83.5 14v-158q-53 -10 -107 -17t-112 -7q-66 0 -132 12 t-123.5 48t-103.5 98.5t-71 164.5q-172 4 -297 67.5t-206.5 171t-121.5 251t-40 303.5zM442 807q0 -147 20.5 -265t63.5 -200t111 -125t160 -43q186 0 271 168t85 465q0 147 -20.5 271t-63.5 214t-110.5 140.5t-161.5 50.5q-92 0 -160 -50.5t-111 -140.5t-63.5 -214 t-20.5 -271z" />
<glyph unicode="R" horiz-adv-x="1794" d="M119 0v156h200v1298h-200v156h708q174 0 301 -35t208 -97.5t120 -148.5t39 -188q0 -152 -85 -255.5t-267 -150.5l243 -481q25 -47 73 -81t130 -34q29 0 67 4t73 15v-158q-57 -14 -121 -23.5t-127 -9.5q-147 0 -242.5 62.5t-155.5 197.5l-213 475h-241v-546h252v-156h-762 zM629 834h213q180 0 262 69.5t82 229.5t-82 240.5t-262 80.5h-213v-620z" />
<glyph unicode="S" horiz-adv-x="1345" d="M76 0v524h219v-182q41 -92 134 -148.5t222 -56.5q61 0 118.5 15.5t100.5 47t69 81t26 116.5q0 72 -28 123t-76 91t-109.5 70t-128.5 58q-90 39 -178.5 79t-159 94.5t-114.5 130t-44 186.5q0 90 33 163.5t96 127t158.5 83t220.5 29.5q150 0 239 -38t132 -91h8v107h213 v-461h-221v162q-35 78 -107 120t-199 42q-145 0 -227 -57.5t-82 -166.5q0 -53 21.5 -91t61.5 -70.5t99.5 -61.5t137.5 -63q98 -43 194 -92.5t173 -112t124 -144.5t47 -192q0 -98 -39 -179t-110.5 -140.5t-174 -92.5t-227.5 -33q-123 0 -228 32t-167 97h-8v-106h-219z" />
<glyph unicode="T" horiz-adv-x="1601" d="M76 1149v461h1450v-461h-221v305h-349v-1298h269v-156h-850v156h270v1298h-350v-305h-219z" />
<glyph unicode="U" horiz-adv-x="1738" d="M88 1454v156h668v-156h-183v-979q0 -80 13.5 -145.5t47.5 -112.5t90 -72.5t142 -25.5t143.5 25.5t91.5 72.5t48 112.5t14 145.5v979h-194v156h680v-156h-195v-981q0 -104 -29.5 -196.5t-98.5 -161t-183.5 -108.5t-284.5 -40t-283.5 40t-183 108.5t-98.5 161t-29 196.5 v981h-176z" />
<glyph unicode="V" horiz-adv-x="1622" d="M82 1454v156h625v-156h-183l285 -856h8l299 856h-178v156h600v-156h-149l-580 -1495h-21l-561 1495h-145z" />
<glyph unicode="W" horiz-adv-x="2174" d="M82 1454v156h569v-156h-143l149 -868h7l417 809h19l409 -809h9l159 868h-174v156h590v-156h-145l-334 -1495h-21l-501 971h-9l-514 -971h-20l-322 1495h-145z" />
<glyph unicode="X" horiz-adv-x="1796" d="M109 0v156h178l461 669l-457 629h-182v156h714v-156h-205l289 -450l320 450h-201v156h660v-156h-199l-449 -616l478 -682h170v-156h-717v156h217l-318 499l-329 -499h221v-156h-651z" />
<glyph unicode="Y" horiz-adv-x="1708" d="M82 1454v156h702v-156h-229l299 -487h8l293 487h-205v156h674v-156h-201l-417 -668v-630h227v-156h-768v156h231v618l-428 680h-186z" />
<glyph unicode="Z" horiz-adv-x="1445" d="M78 0v20l874 1434h-614v-305h-219v461h1216v-21l-868 -1433h627v368h219v-524h-1235z" />
<glyph unicode="[" horiz-adv-x="1112" d="M340 -354v2166h700v-126h-475v-1913h475v-127h-700z" />
<glyph unicode="\" horiz-adv-x="1419" d="M27 1675h241l1123 -1964h-242z" />
<glyph unicode="]" horiz-adv-x="1112" d="M70 -227h477v1913h-477v126h700v-2166h-700v127z" />
<glyph unicode="^" horiz-adv-x="1316" d="M119 510l454 1100h162l461 -1100h-174l-365 887h-8l-354 -887h-176z" />
<glyph unicode="_" horiz-adv-x="1644" d="M-14 -203h1677v-155h-1677v155z" />
<glyph unicode="`" horiz-adv-x="811" d="M111 1595h254l335 -321h-196z" />
<glyph unicode="a" horiz-adv-x="1394" d="M90 291q0 55 22.5 113.5t75 110.5t135.5 96t205 71l349 76v6q0 80 -16.5 134t-48.5 87t-78 46t-105 13q-123 0 -195 -50t-72 -148v-49h-210v49q0 84 37.5 149.5t104 109.5t158 67.5t197.5 23.5q96 0 187.5 -20.5t163 -66.5t114.5 -120t43 -182v-565q0 -59 31 -82t78 -23 q35 0 71 15v-152q-35 -14 -72.5 -21.5t-90.5 -7.5q-109 0 -179.5 34t-99.5 108q-72 -63 -162 -98t-217 -35q-109 0 -189.5 25.5t-133 68.5t-78 99t-25.5 118zM373 334q0 -96 53 -146.5t170 -50.5q92 0 158.5 31t122.5 88v377l-228 -53q-80 -18 -133 -42t-85 -53.5t-45 -67.5 t-13 -83z" />
<glyph unicode="b" horiz-adv-x="1517" d="M39 1460v150h469v-539q70 47 169 86t226 39q231 0 359.5 -150.5t128.5 -455.5q0 -170 -40 -286t-111 -188.5t-168 -104t-214 -31.5q-133 0 -227 34.5t-164 91.5l-8 -106h-234v1460h-186zM508 252q51 -47 122.5 -70.5t149.5 -23.5q156 0 243 98t87 324q0 211 -77 324.5 t-230 113.5q-74 0 -154 -26.5t-141 -78.5v-661z" />
<glyph unicode="c" horiz-adv-x="1292" d="M113 590q0 143 40 255.5t111.5 190.5t172 119t222.5 41q102 0 178 -26.5t126 -67.5h4v74h227v-359h-231v55q0 31 -16.5 61t-48.5 53.5t-79 37.5t-108 14q-72 0 -131.5 -23.5t-100.5 -75.5t-63.5 -136t-22.5 -207q0 -459 332 -459q115 0 183.5 50.5t68.5 142.5v51h211v-62 q0 -78 -33 -140t-94.5 -106t-149.5 -68.5t-198 -24.5q-287 0 -443.5 160.5t-156.5 449.5z" />
<glyph unicode="d" horiz-adv-x="1593" d="M125 575q0 170 40 288t111.5 191.5t171 107.5t216.5 34q111 0 194.5 -25.5t149.5 -70.5v360h-213v150h495v-1460h199v-150h-469v104q-74 -55 -178.5 -89.5t-225.5 -34.5q-231 0 -361 145t-130 450zM406 586q0 -211 76.5 -319.5t230.5 -108.5q76 0 154.5 26.5t140.5 77.5 v662q-49 47 -121 70.5t-150 23.5q-158 0 -244.5 -102.5t-86.5 -329.5z" />
<glyph unicode="e" horiz-adv-x="1396" d="M113 578q0 152 46 267.5t127 193t189.5 117.5t233.5 40q133 0 239.5 -43t181 -119t114.5 -176t40 -217q0 -23 -1 -40t-5 -40h-885q4 -207 84 -315.5t254 -108.5q63 0 118.5 14.5t95.5 42t63.5 66.5t23.5 88v33h211v-33q0 -88 -43 -156.5t-115.5 -115.5t-169 -71.5 t-204.5 -24.5q-141 0 -253 41.5t-188.5 118.5t-116.5 187.5t-40 250.5zM399 696h619q0 160 -85 250t-226 90q-121 0 -204 -77.5t-104 -262.5z" />
<glyph unicode="f" horiz-adv-x="1230" d="M70 1026v150h239v143q0 82 33 144.5t94.5 105.5t146.5 64.5t189 21.5q92 0 169 -17.5t132 -51.5t86 -84t31 -116v-73h-205v90q0 47 -51 75.5t-135 28.5q-90 0 -149.5 -37.5t-59.5 -117.5v-176h377v-150h-377v-876h252v-150h-736v150h203v876h-239z" />
<glyph unicode="g" horiz-adv-x="1431" d="M156 -160q0 127 98 191q-47 29 -69.5 71.5t-22.5 90.5q0 131 155 208q-82 61 -120.5 146.5t-38.5 183.5q0 92 34.5 176t105.5 148.5t179.5 102.5t255.5 38q94 0 171 -15.5t138 -43.5q98 51 99 135q0 72 -78 143h235q35 -35 49.5 -69.5t14.5 -67.5q0 -68 -54.5 -124 t-146.5 -91q76 -66 113 -152t37 -182q0 -92 -35 -172t-105.5 -139.5t-179 -94t-256.5 -34.5q-170 0 -293 47q-55 -43 -55 -96q0 -39 34 -64.5t103 -25.5h506q96 0 167 -22t117 -58.5t67.5 -88t21.5 -110.5q0 -129 -97.5 -207t-295.5 -78h-482q-193 0 -282.5 66.5 t-89.5 187.5zM356 -143q0 -143 213 -144h375q92 0 145.5 33t53.5 104q0 59 -44 95.5t-147 36.5h-516q-80 -41 -80 -125zM428 733q0 -137 75 -214t232 -77q160 0 233.5 77t73.5 214q0 135 -74.5 223t-232.5 88t-232.5 -88t-74.5 -223z" />
<glyph unicode="h" horiz-adv-x="1701" d="M119 0v150h198v1310h-198v150h479v-551h8q119 68 224.5 102.5t224.5 34.5q178 0 264 -78t86 -227v-741h190v-150h-663v150h188v714q0 147 -172 148q-78 0 -169 -30t-181 -85v-747h184v-150h-663z" />
<glyph unicode="i" horiz-adv-x="907" d="M119 0v150h203v876h-203v150h483v-1026h201v-150h-684zM322 1352v258h280v-258h-280z" />
<glyph unicode="j" horiz-adv-x="1007" d="M-90 -84h209v-86q0 -47 50 -75.5t134 -28.5q92 0 150.5 37.5t58.5 117.5v1145h-205v150h488v-1262q0 -82 -34 -143.5t-94.5 -102.5t-145.5 -61.5t-189 -20.5q-92 0 -170 15.5t-133.5 48.5t-87 82t-31.5 114v70zM512 1352v258h283v-258h-283z" />
<glyph unicode="k" horiz-adv-x="1617" d="M119 0v150h203v1310h-203v150h483v-985h8l469 401h-209v150h639v-150h-188l-320 -272l232 -506q23 -51 73 -82t136 -31q27 0 62.5 3t70.5 14v-158q-66 -12 -126 -19.5t-116 -7.5q-299 0 -377 213l-149 406l-205 -174v-262h201v-150h-684z" />
<glyph unicode="l" horiz-adv-x="907" d="M119 0v150h200v1310h-200v150h483v-1460h201v-150h-684z" />
<glyph unicode="m" horiz-adv-x="2514" d="M119 0v150h198v876h-198v150h467v-117h8q111 63 219.5 100t230.5 37q129 0 217.5 -42t116.5 -120q111 78 228.5 120t255.5 42q184 0 270 -77t86 -228v-741h192v-150h-667v150h192v714q0 147 -170 148q-82 0 -174 -33t-186 -96v-733h190v-150h-663v150h188v722 q0 66 -42 103t-130 37q-78 0 -169 -31t-181 -84v-747h184v-150h-663z" />
<glyph unicode="n" horiz-adv-x="1701" d="M119 0v150h198v876h-198v150h465v-117h8q121 70 228.5 103.5t226.5 33.5q186 0 272 -79t86 -226v-741h190v-150h-663v150h188v714q0 72 -40 110t-130 38q-78 0 -170 -30t-182 -85v-747h184v-150h-663z" />
<glyph unicode="o" horiz-adv-x="1427" d="M113 571q0 123 35.5 236t110.5 200t187.5 138t266.5 51t266.5 -51t187 -138t110.5 -200t36 -236t-36 -230.5t-110.5 -188t-187.5 -126.5t-266 -46q-154 0 -266.5 46t-187.5 126.5t-110.5 188.5t-35.5 230zM393 573q0 -201 76 -314.5t244 -113.5q166 0 243.5 112t77.5 316 q0 100 -19.5 185.5t-58 145t-100 93t-143.5 33.5q-84 0 -144.5 -33.5t-99.5 -94t-57.5 -144.5t-18.5 -185z" />
<glyph unicode="p" d="M119 -244h188v1270h-188v150h459v-105q78 59 181 92t220 33q236 0 363.5 -145.5t127.5 -452.5q0 -170 -39.5 -287.5t-110.5 -191.5t-170 -106.5t-216 -32.5q-113 0 -197 26.5t-147 69.5v-320h205v-149h-676v149zM590 252q53 -49 122.5 -71.5t145.5 -22.5q156 0 245 99 t89 331q0 213 -78 321.5t-231 108.5q-72 0 -150 -25.5t-143 -79.5v-661z" />
<glyph unicode="q" horiz-adv-x="1476" d="M125 586q0 168 40 283.5t110.5 188t169 105.5t214.5 33q127 0 221.5 -34t166.5 -93l6 107h235v-1420h189v-149h-689v149h218v348q-74 -53 -175.5 -88.5t-220.5 -35.5q-229 0 -357 150.5t-128 455.5zM406 596q0 -213 77.5 -325.5t231.5 -112.5q78 0 154.5 27.5t136.5 76.5 v662q-55 51 -125 72.5t-146 21.5q-78 0 -138 -22.5t-103 -73t-65.5 -130t-22.5 -196.5z" />
<glyph unicode="r" horiz-adv-x="1445" d="M119 0v150h198v876h-198v150h465l4 -160h8q115 86 223.5 133t235.5 47q162 0 240.5 -78t78.5 -227v-184h-237v165q0 76 -42 112t-120 36q-96 0 -194.5 -48t-182.5 -114v-708h219v-150h-698z" />
<glyph unicode="s" horiz-adv-x="1280" d="M100 0v381h236v-125q47 -57 130 -94t181 -37q47 0 92 10t80 30.5t56.5 53.5t21.5 78q0 51 -26.5 87t-73.5 64.5t-110.5 51t-137.5 47.5q-86 29 -164 57.5t-135 68.5t-91 94t-34 134q0 143 108.5 219t301.5 76q127 0 217 -30.5t153 -78.5h8v89h228v-359h-236v113 q-41 55 -117.5 87t-171.5 32q-98 0 -157.5 -36t-59.5 -108q0 -41 20.5 -68.5t57.5 -50t89 -42t116 -42.5q102 -37 191.5 -73.5t156 -83.5t105.5 -108.5t39 -147.5q0 -80 -33 -140.5t-92.5 -100.5t-141.5 -60.5t-180 -20.5q-117 0 -215 28t-166 81h-10v-76h-236z" />
<glyph unicode="t" horiz-adv-x="1028" d="M70 1026v150h239v297h281v-297h377v-150h-377v-745q0 -78 53 -113t139 -35q27 0 61 3t56 11v-155q-41 -10 -94 -17.5t-117 -7.5q-80 0 -149.5 15.5t-120.5 52.5t-80 97.5t-29 148.5v745h-239z" />
<glyph unicode="u" horiz-adv-x="1660" d="M78 1026v150h475v-865q0 -147 172 -147q74 0 165 27.5t189 87.5v747h-205v150h486v-1026h196v-150h-464v119q-113 -63 -224.5 -101t-242.5 -38q-180 0 -266.5 77.5t-86.5 227.5v741h-194z" />
<glyph unicode="v" horiz-adv-x="1605" d="M66 1026v150h641v-150h-193l289 -625h8l303 625h-180v150h604v-150h-164l-573 -1059h-21l-557 1059h-157z" />
<glyph unicode="w" horiz-adv-x="2113" d="M66 1026v150h620v-150h-215l178 -565h13l389 735h24l375 -735h10l197 565h-201v150h592v-150h-150l-405 -1059h-25l-405 821h-10l-430 -821h-25l-391 1059h-141z" />
<glyph unicode="x" horiz-adv-x="1679" d="M94 0v150h168l418 450l-412 426h-174v150h692v-150h-190l266 -309l283 309h-193v150h631v-150h-188l-410 -420l438 -456h160v-150h-694v150h205l-289 337l-295 -337h213v-150h-629z" />
<glyph unicode="y" horiz-adv-x="1630" d="M66 1026v150h655v-150h-207l301 -643h8l312 643h-177v150h605v-150h-164l-598 -1184q-70 -137 -180.5 -196.5t-278.5 -59.5q-45 0 -87 4t-87 13v149q35 -4 64.5 -7t58.5 -3q100 0 175 41t120 133l106 213l-471 897h-155z" />
<glyph unicode="z" horiz-adv-x="1378" d="M82 0v20l833 1012h-563v-215h-233v359h1161v-21l-819 -1010h567v236h229v-381h-1175z" />
<glyph unicode="{" horiz-adv-x="1112" d="M193 668v120h98q57 0 95 10.5t58.5 34t28.5 62.5t8 98q0 78 -9 144.5t-21.5 127t-21.5 117t-9 111.5q0 68 19.5 126t68.5 101t134 67.5t218 24.5q45 0 94.5 -2t85.5 -6v-129q-31 4 -74.5 7.5t-82.5 3.5q-72 0 -119 -15.5t-74.5 -44.5t-39 -68.5t-11.5 -87.5q0 -47 8 -101 t17.5 -115.5t17.5 -128t8 -136.5q0 -92 -21.5 -156.5t-86.5 -105.5q63 -37 85.5 -99.5t22.5 -160.5q0 -70 -8 -135.5t-17.5 -126t-17.5 -115.5t-8 -104q0 -47 11.5 -87t40 -68t77.5 -43t125 -15q35 0 77 3t70 7v-127q-35 -6 -84 -8t-84 -2q-139 0 -227 24.5t-138 67.5 t-68.5 100.5t-18.5 122.5q0 57 9 113.5t21.5 117t21.5 128t9 145.5q0 57 -7 96t-28.5 62.5t-58.5 34t-96 10.5h-98z" />
<glyph unicode="|" horiz-adv-x="743" d="M285 -354v2166h174v-2166h-174z" />
<glyph unicode="}" horiz-adv-x="1112" d="M70 -217q33 -4 73.5 -7t73.5 -3q76 0 125 15t78 44t40 68t11 88q0 47 -8 101t-17.5 115.5t-16.5 127t-7 133.5q0 109 24.5 168t81.5 94q-63 41 -84.5 103.5t-21.5 158.5q0 70 7 136.5t16.5 128t17.5 115.5t8 101q0 49 -11 88t-39 68t-77 44.5t-123 15.5q-33 0 -75 -3.5 t-76 -7.5v129q37 4 86 6t94 2q133 0 218 -24.5t134 -67.5t68.5 -101t19.5 -126q0 -55 -9 -111.5t-21.5 -117t-21.5 -127t-9 -144.5q0 -59 8 -98t28.5 -62.5t57.5 -34t96 -10.5h99v-120h-99q-59 0 -96 -10.5t-58.5 -34t-28.5 -62.5t-7 -96q0 -78 9 -145.5t21.5 -128 t21.5 -117t9 -113.5q0 -66 -18.5 -123t-68.5 -100t-138 -67.5t-227 -24.5q-35 0 -84.5 2t-83.5 8v127z" />
<glyph unicode="~" horiz-adv-x="1349" d="M119 698v86q0 117 60.5 178.5t189.5 61.5q51 0 94 -10t84 -29.5t83 -48.5t91 -68q70 -55 124 -91t116 -36q59 0 83.5 35t24.5 94v68h160v-88q0 -117 -59.5 -178.5t-184.5 -61.5q-55 0 -101 12.5t-88 33t-83 48t-84 60.5q-70 55 -124 91t-116 36q-59 0 -83.5 -33 t-24.5 -92v-68h-162z" />
<glyph unicode="&#xa1;" horiz-adv-x="729" d="M182 0zM183 -301l118 1139h140l121 -1139h-379zM250 1010v299h238v-299h-238z" />
<glyph unicode="&#xa2;" horiz-adv-x="1443" d="M127 807q0 150 42 275.5t122 216t197.5 140.5t271.5 50h12v221h80v-227q86 -10 148.5 -37t97.5 -66h8v84h211v-387h-217v94q0 78 -65.5 126.5t-182.5 54.5v-1098q121 4 198.5 62.5t77.5 166.5v54h195v-54q0 -82 -35 -147.5t-97.5 -111.5t-148.5 -72.5t-190 -32.5v-221 h-80v221q-162 4 -282.5 57t-201.5 144.5t-121 215t-40 271.5zM457 807q0 -260 74.5 -394t240.5 -157v1096q-76 -6 -134 -40t-98 -99.5t-61.5 -165t-21.5 -240.5z" />
<glyph unicode="&#xa3;" horiz-adv-x="1486" d="M102 152q0 88 74 130t182 42q66 0 121.5 -13.5t102.5 -36.5q4 23 7 47.5t3 53.5q0 92 -28.5 167.5t-71.5 143.5h-361v117h277q-37 49 -73 97t-64.5 100.5t-46 109.5t-17.5 123q0 100 42 176t117.5 127t181 77.5t232.5 26.5q276 0 413.5 -116.5t137.5 -327.5v-41h-192v41 q0 125 -79 205t-261 80q-160 0 -241 -65.5t-81 -190.5q0 -55 15.5 -110.5t39 -108t53 -103.5t58.5 -100h700v-117h-638q37 -72 61.5 -148.5t24.5 -162.5q0 -106 -39 -191q47 -25 94 -40t100 -15q61 0 106.5 21.5t74 58.5t43 87t14.5 107v52h194v-60q0 -209 -102 -318.5 t-281 -109.5q-106 0 -178 34t-131 81q-51 -53 -125 -84t-178 -31q-57 0 -108.5 11.5t-89.5 34t-60.5 57t-22.5 82.5zM238 174q0 -41 39 -61.5t92 -20.5q66 0 110.5 26.5t71.5 71.5q-41 27 -85 44.5t-101 17.5q-59 0 -93 -20.5t-34 -57.5z" />
<glyph unicode="&#xa4;" horiz-adv-x="1296" d="M150 410l137 135q-47 63 -67.5 126.5t-20.5 135.5q0 152 88 266l-137 139l94 95l135 -138q61 41 125.5 64.5t142.5 23.5q145 0 266 -90l136 138l94 -95l-137 -137q88 -113 88 -266q0 -74 -20.5 -135.5t-67.5 -126.5l137 -135l-96 -93l-136 134q-117 -88 -266 -89 q-76 0 -142.5 24t-121.5 67l-135 -136zM350 809q0 -66 22.5 -123t62.5 -99t94.5 -66.5t115.5 -24.5t116.5 24.5t95.5 66.5t63.5 99t23.5 123t-23.5 123t-63.5 100t-95.5 67.5t-116.5 24.5t-115.5 -24.5t-94.5 -67.5t-62.5 -100.5t-22.5 -122.5z" />
<glyph unicode="&#xa5;" horiz-adv-x="1562" d="M82 1610h299l393 -606h10l418 606h277l-549 -801v-154h450v-116h-450v-195h450v-115h-450v-229h-312v229h-450v115h450v195h-450v116h450v148z" />
<glyph unicode="&#xa6;" horiz-adv-x="743" d="M285 -354v835h174v-835h-174zM285 977v835h174v-835h-174z" />
<glyph unicode="&#xa7;" horiz-adv-x="1437" d="M119 735q0 45 13 94.5t46 93.5t89.5 80.5t144.5 57.5q-47 47 -75 104.5t-28 126.5q0 57 24.5 119t86 113t167 84.5t269.5 33.5q125 0 212 -21.5t141.5 -61t79 -98t24.5 -132.5v-125h-207v125q0 74 -57.5 123t-194.5 49q-154 0 -223.5 -60.5t-69.5 -140.5q0 -78 56.5 -138 t140.5 -115.5t181 -108.5t181 -117.5t140.5 -143.5t56.5 -185q0 -45 -13.5 -94.5t-47 -94.5t-89 -82t-141.5 -55q47 -47 73.5 -103.5t26.5 -123.5q0 -57 -24.5 -120t-86 -114t-168 -85t-269.5 -34q-127 0 -214.5 21.5t-140.5 61.5t-77.5 97.5t-24.5 131.5v127h209v-127 q0 -72 57 -121t195 -49q78 0 133 16t91 44t52 63.5t16 76.5q0 78 -56 139.5t-140 116t-181.5 107.5t-181.5 116.5t-140 142.5t-56 185zM371 733q0 -78 46 -137t116.5 -110.5t157.5 -97.5t169 -97q111 27 158 79t47 124q0 76 -46 136t-118 111.5t-158 97.5t-168 97 q-111 -27 -157.5 -78t-46.5 -125z" />
<glyph unicode="&#xa8;" horiz-adv-x="972" d="M119 1366v244h213v-244h-213zM639 1366v244h213v-244h-213z" />
<glyph unicode="&#xaa;" horiz-adv-x="1050" d="M125 1026q0 39 14.5 78t47 74.5t85 63.5t129.5 44l224 45v49q0 78 -43 108t-107 30q-72 0 -116 -32t-44 -91v-35h-147v35q0 111 90 169t234 58q70 0 129 -15.5t104 -46t70.5 -78.5t25.5 -114v-389q0 -25 20.5 -40t53.5 -15q14 0 26.5 2t26.5 6v-105q-49 -16 -106 -16 q-63 0 -117.5 21.5t-75.5 64.5q-43 -35 -107.5 -56.5t-142.5 -21.5q-139 0 -206.5 60.5t-67.5 146.5zM322 1055q0 -59 32.5 -92t104.5 -33q49 0 89 14t77 39v258l-140 -27q-51 -10 -82.5 -26.5t-50 -38t-24.5 -46t-6 -48.5z" />
<glyph unicode="&#xab;" horiz-adv-x="1081" d="M57 0zM57 586l363 590h211l-369 -590l369 -586h-211zM450 586l363 590h211l-369 -590l369 -586h-211z" />
<glyph unicode="&#xac;" horiz-adv-x="1349" d="M119 729v156h1110v-885h-164v729h-946z" />
<glyph unicode="&#xad;" horiz-adv-x="1064" d="M119 678v166h825v-166h-825zM119 678z" />
<glyph unicode="&#xaf;" horiz-adv-x="1298" d="M119 1360v127h1059v-127h-1059z" />
<glyph unicode="&#xb0;" horiz-adv-x="856" d="M84 1262q0 74 20.5 143.5t62.5 121.5t106.5 83.5t152.5 31.5t152.5 -31.5t107.5 -83.5t63.5 -122t20.5 -143q0 -74 -20.5 -139.5t-63.5 -115t-107.5 -77t-152.5 -27.5t-152.5 27.5t-106.5 77t-62.5 115t-20.5 139.5zM233 1264q0 -121 45.5 -186.5t147.5 -65.5 q104 0 150.5 65.5t46.5 186.5t-46.5 194.5t-150.5 73.5q-102 0 -147.5 -74t-45.5 -194z" />
<glyph unicode="&#xb1;" horiz-adv-x="1349" d="M119 0v156h1110v-156h-1110zM119 0zM119 801v156h475v473h166v-473h469v-156h-469v-471h-166v471h-475z" />
<glyph unicode="&#xb2;" horiz-adv-x="759" d="M113 725v111q0 55 10 97t34.5 81t66.5 78t108 86q49 37 83 62.5t54 48t28.5 46t8.5 56.5q0 59 -28.5 98t-106.5 39q-66 0 -103 -34t-37 -110v-24h-102v31q0 117 66.5 177t187.5 60q70 0 120 -19.5t80.5 -52t45 -75.5t14.5 -90q0 -49 -13.5 -86t-39 -69t-62 -61.5 t-82.5 -64.5q-63 -49 -102 -80t-60.5 -56.5t-28.5 -52t-7 -65.5v-27h399v-104h-534zM113 725z" />
<glyph unicode="&#xb3;" horiz-adv-x="759" d="M123 707zM123 944v31h106v-31q0 -72 36 -104.5t97 -32.5q76 0 112 46t36 132t-35 119t-96 33h-139v104h139q66 0 94.5 29.5t28.5 105.5q0 84 -35 118t-100 34q-66 0 -101 -32t-35 -105v-31h-102v31q0 117 66.5 177t187.5 60q70 0 118 -19.5t76.5 -52t42 -76.5t13.5 -91 q0 -86 -33 -130.5t-80 -66.5q59 -20 98 -71.5t39 -141.5q0 -55 -16 -104.5t-51 -86t-87 -59t-122 -22.5q-117 0 -187.5 60t-70.5 177z" />
<glyph unicode="&#xb4;" horiz-adv-x="811" d="M111 1274l333 321h256l-395 -321h-194z" />
<glyph unicode="&#xb6;" horiz-adv-x="1941" d="M119 1182q0 92 32.5 171t103.5 136t180.5 89t260.5 32h1125v-2003h-256v1872h-484v-1872h-256v1171h-129q-152 0 -261 29t-180 81t-103.5 127t-32.5 167zM393 1184q0 -145 72 -210t219 -65h141v570h-141q-291 0 -291 -295z" />
<glyph unicode="&#xb7;" horiz-adv-x="430" d="M96 600v299h238v-299h-238zM96 600z" />
<glyph unicode="&#xb8;" horiz-adv-x="638" d="M121 -414l237 353h160l-172 -353h-225z" />
<glyph unicode="&#xb9;" horiz-adv-x="745" d="M211 725zM211 1401v92h49q92 0 98 117h121v-885h-160v676h-108z" />
<glyph unicode="&#xba;" horiz-adv-x="1071" d="M137 1210q0 80 24.5 155t74 132t124.5 91t175 34t174.5 -35t124 -91t73 -131t23.5 -155q0 -82 -23.5 -152.5t-73 -123.5t-124 -84t-174.5 -31t-175 31t-124.5 83t-74 123.5t-24.5 153.5zM332 1212q0 -131 50 -204.5t155 -73.5q104 0 153 73.5t49 204.5t-50 214t-154 83 t-153.5 -83t-49.5 -214z" />
<glyph unicode="&#xbb;" horiz-adv-x="1081" d="M57 0l369 586l-369 590h211l363 -590l-363 -586h-211zM57 0zM450 0l369 586l-369 590h211l363 -590l-363 -586h-211z" />
<glyph unicode="&#xbc;" horiz-adv-x="1720" d="M129 0l1260 1610h159l-1255 -1610h-164zM129 0zM174 1401v92h49q92 0 98 117h121v-885h-160v676h-108zM919 233v11l533 663h16v-596h123v-78h-123v-233h-147v233h-402zM1093 311h228v291h-4z" />
<glyph unicode="&#xbd;" horiz-adv-x="1720" d="M108 0l1260 1610h159l-1255 -1610h-164zM109 0zM170 1401v92h49q92 0 98 117h121v-885h-160v676h-108zM1076 0v111q0 55 10 97t34.5 81t66.5 78t108 86q49 37 83 62.5t54 48t28.5 46t8.5 56.5q0 59 -28.5 98t-106.5 39q-66 0 -103 -34t-37 -110v-24h-102v31 q0 117 66.5 177t187.5 60q70 0 120 -19.5t80.5 -52t45 -75.5t14.5 -90q0 -49 -13.5 -86t-39 -69t-62 -61.5t-82.5 -64.5q-63 -49 -102 -80t-60.5 -56.5t-28.5 -52t-7 -65.5v-27h399v-104h-534z" />
<glyph unicode="&#xbe;" horiz-adv-x="1720" d="M106 0zM107 944v31h106v-31q0 -72 36 -104.5t97 -32.5q76 0 112 46t36 132t-35 119t-96 33h-139v104h139q66 0 94.5 29.5t28.5 105.5q0 84 -35 118t-100 34q-66 0 -101 -32t-35 -105v-31h-102v31q0 117 66.5 177t187.5 60q70 0 118 -19.5t76.5 -52t42 -76.5t13.5 -91 q0 -86 -33 -130.5t-80 -66.5q59 -20 98 -71.5t39 -141.5q0 -55 -16 -104.5t-51 -86t-87 -59t-122 -22.5q-117 0 -187.5 60t-70.5 177zM155 0l1260 1610h159l-1255 -1610h-164zM940 233v11l533 663h16v-596h123v-78h-123v-233h-147v233h-402zM1114 311h228v291h-4z" />
<glyph unicode="&#xbf;" horiz-adv-x="1288" d="M72 0zM72 95q0 82 25.5 143t66.5 109.5t95 88t112 76.5q66 43 105.5 78t62 69t30.5 70.5t8 83.5v27h226v-23q0 -57 -10.5 -106t-35 -95t-68.5 -92t-112 -98q-43 -33 -85 -63.5t-74.5 -67.5t-52 -84t-19.5 -114q0 -53 15.5 -102.5t52 -86.5t99 -58.5t157.5 -21.5 q158 0 249 65.5t91 205.5v55h194v-55q0 -213 -145.5 -322.5t-415.5 -109.5q-156 0 -264.5 34.5t-177 94t-99 136.5t-30.5 163zM569 1010v299h240v-299h-240z" />
<glyph unicode="&#xc0;" horiz-adv-x="1622" d="M82 0v156h151l584 1495h21l557 -1495h143v-156h-620v156h178l-68 200h-448l-72 -200h178v-156h-604zM82 0zM471 2029h254l335 -321h-196zM604 485h402l-193 547h-8z" />
<glyph unicode="&#xc1;" horiz-adv-x="1622" d="M82 0v156h151l584 1495h21l557 -1495h143v-156h-620v156h178l-68 200h-448l-72 -200h178v-156h-604zM82 0zM594 1708l333 321h256l-395 -321h-194zM604 485h402l-193 547h-8z" />
<glyph unicode="&#xc2;" horiz-adv-x="1622" d="M82 0v156h151l584 1495h21l557 -1495h143v-156h-620v156h178l-68 200h-448l-72 -200h178v-156h-604zM82 0zM365 1671l446 373h31l446 -373h-192l-264 223h-8l-267 -223h-192zM604 485h402l-193 547h-8z" />
<glyph unicode="&#xc3;" horiz-adv-x="1622" d="M82 0v156h151l584 1495h21l557 -1495h143v-156h-620v156h178l-68 200h-448l-72 -200h178v-156h-604zM82 0zM332 1761v68q0 88 61.5 136t186.5 48q51 0 90 -8t70.5 -24.5t60 -39t59.5 -51.5q47 -43 89 -66.5t108 -23.5q70 0 102.5 25.5t32.5 66.5v53h129v-67 q0 -88 -61.5 -136t-186.5 -48q-104 0 -165.5 31.5t-112.5 78.5q-53 51 -94.5 78t-108.5 27q-68 0 -99.5 -26t-31.5 -71v-51h-129zM604 485h402l-193 547h-8z" />
<glyph unicode="&#xc4;" horiz-adv-x="1622" d="M82 0v156h151l584 1495h21l557 -1495h143v-156h-620v156h178l-68 200h-448l-72 -200h178v-156h-604zM82 0zM459 1800v244h213v-244h-213zM604 485h402l-193 547h-8zM979 1800v244h213v-244h-213z" />
<glyph unicode="&#xc5;" horiz-adv-x="1622" d="M82 0v156h151l582 1493q-92 4 -153.5 58t-61.5 138t64.5 141.5t160.5 57.5q47 0 88 -15.5t72 -42t49.5 -63.5t18.5 -78q0 -82 -62.5 -137t-152.5 -59l557 -1493h143v-156h-620v156h178l-68 200h-448l-72 -200h178v-156h-604zM604 485h402l-193 547h-8zM694 1843 q0 -57 37 -94t94 -37t95 37t38 94t-38 97t-95 40t-94 -39.5t-37 -97.5z" />
<glyph unicode="&#xc6;" horiz-adv-x="2285" d="M82 0v156h151l564 1454h1355v-461h-219v305h-538v-528h733v-168h-733v-602h544v368h220v-524h-1289v156h213v200h-505l-70 -200h178v-156h-604zM602 485h481v969h-135z" />
<glyph unicode="&#xc7;" horiz-adv-x="1427" d="M113 0zM113 815q0 174 36.5 324.5t113.5 262t194.5 176t281.5 64.5q121 0 208 -34.5t132 -94.5h8v97h211v-461h-219v98q0 119 -74.5 177.5t-201.5 58.5q-98 0 -167 -38t-113 -118t-63.5 -206t-19.5 -300q0 -164 18.5 -292t61.5 -217t116 -136t181 -47q61 0 115.5 16.5 t94.5 50t63.5 84t23.5 119.5v56h193v-56q0 -106 -39 -187t-108.5 -135t-165 -82t-206.5 -28q-176 0 -303 64.5t-209.5 178.5t-122.5 268.5t-40 336.5zM440 -414l237 353h160l-172 -353h-225z" />
<glyph unicode="&#xc8;" horiz-adv-x="1519" d="M119 0v156h200v1298h-200v156h1267v-461h-219v305h-538v-528h733v-168h-733v-602h545v368h219v-524h-1274zM119 0zM439 2029h254l335 -321h-196z" />
<glyph unicode="&#xc9;" horiz-adv-x="1519" d="M119 0v156h200v1298h-200v156h1267v-461h-219v305h-538v-528h733v-168h-733v-602h545v368h219v-524h-1274zM119 0zM566 1708l333 321h256l-395 -321h-194z" />
<glyph unicode="&#xca;" horiz-adv-x="1519" d="M119 0v156h200v1298h-200v156h1267v-461h-219v305h-538v-528h733v-168h-733v-602h545v368h219v-524h-1274zM119 0zM316 1671l446 373h31l446 -373h-192l-264 223h-8l-267 -223h-192z" />
<glyph unicode="&#xcb;" horiz-adv-x="1519" d="M119 0v156h200v1298h-200v156h1267v-461h-219v305h-538v-528h733v-168h-733v-602h545v368h219v-524h-1274zM119 0zM418 1800v244h213v-244h-213zM938 1800v244h213v-244h-213z" />
<glyph unicode="&#xcc;" horiz-adv-x="950" d="M119 0v156h200v1298h-200v156h710v-156h-200v-1298h200v-156h-710zM119 0zM121 2029h254l335 -321h-196z" />
<glyph unicode="&#xcd;" horiz-adv-x="946" d="M119 0v156h200v1298h-200v156h710v-156h-200v-1298h200v-156h-710zM119 0zM250 1708l333 321h256l-395 -321h-194z" />
<glyph unicode="&#xce;" horiz-adv-x="978" d="M27 0zM27 1671l446 373h31l446 -373h-192l-264 223h-8l-267 -223h-192zM131 0v156h200v1298h-200v156h710v-156h-200v-1298h200v-156h-710z" />
<glyph unicode="&#xcf;" horiz-adv-x="950" d="M115 0zM115 1800v244h213v-244h-213zM119 0v156h200v1298h-200v156h710v-156h-200v-1298h200v-156h-710zM635 1800v244h213v-244h-213z" />
<glyph unicode="&#xd0;" horiz-adv-x="1640" d="M119 0v156h200v602h-200v168h200v528h-200v156h659q195 0 336 -62.5t232.5 -173t135.5 -262t44 -330.5q0 -178 -44 -322.5t-135.5 -246.5t-232.5 -157.5t-336 -55.5h-659zM629 156h164q102 0 178 34.5t127 110.5t75.5 194.5t24.5 286.5q0 672 -405 672h-164v-528h366 v-168h-366v-602z" />
<glyph unicode="&#xd1;" horiz-adv-x="1695" d="M119 0v156h200v1298h-200v156h475l547 -889h8v733h-199v156h662v-156h-197v-1495h-20l-801 1171h-8v-974h205v-156h-672zM119 0zM338 1761v68q0 88 61.5 136t186.5 48q51 0 90 -8t70.5 -24.5t60 -39t59.5 -51.5q47 -43 89 -66.5t108 -23.5q70 0 102.5 25.5t32.5 66.5v53 h129v-67q0 -88 -61.5 -136t-186.5 -48q-104 0 -165.5 31.5t-112.5 78.5q-53 51 -94.5 78t-108.5 27q-68 0 -99.5 -26t-31.5 -71v-51h-129z" />
<glyph unicode="&#xd2;" d="M113 0zM113 782q0 168 41 323t124.5 274.5t213 191t305.5 71.5t305 -71.5t214 -191t126 -274.5t41 -323t-41 -316.5t-126 -259t-214 -175t-305 -64.5t-305.5 64.5t-213 175t-124.5 259t-41 316.5zM442 782q0 -154 20.5 -274.5t63.5 -205.5t111 -130t160 -45 q94 0 161.5 45t110.5 130t63.5 206t20.5 274q0 154 -20.5 283t-63.5 221t-110.5 144.5t-161.5 52.5q-92 0 -160 -52.5t-111 -144.5t-63.5 -221t-20.5 -283zM443 2029h254l335 -321h-196z" />
<glyph unicode="&#xd3;" d="M113 0zM113 782q0 168 41 323t124.5 274.5t213 191t305.5 71.5t305 -71.5t214 -191t126 -274.5t41 -323t-41 -316.5t-126 -259t-214 -175t-305 -64.5t-305.5 64.5t-213 175t-124.5 259t-41 316.5zM442 782q0 -154 20.5 -274.5t63.5 -205.5t111 -130t160 -45 q94 0 161.5 45t110.5 130t63.5 206t20.5 274q0 154 -20.5 283t-63.5 221t-110.5 144.5t-161.5 52.5q-92 0 -160 -52.5t-111 -144.5t-63.5 -221t-20.5 -283zM564 1708l333 321h256l-395 -321h-194z" />
<glyph unicode="&#xd4;" d="M113 0zM113 782q0 168 41 323t124.5 274.5t213 191t305.5 71.5t305 -71.5t214 -191t126 -274.5t41 -323t-41 -316.5t-126 -259t-214 -175t-305 -64.5t-305.5 64.5t-213 175t-124.5 259t-41 316.5zM336 1671l446 373h31l446 -373h-192l-264 223h-8l-267 -223h-192z M442 782q0 -154 20.5 -274.5t63.5 -205.5t111 -130t160 -45q94 0 161.5 45t110.5 130t63.5 206t20.5 274q0 154 -20.5 283t-63.5 221t-110.5 144.5t-161.5 52.5q-92 0 -160 -52.5t-111 -144.5t-63.5 -221t-20.5 -283z" />
<glyph unicode="&#xd5;" d="M113 0zM113 782q0 168 41 323t124.5 274.5t213 191t305.5 71.5t305 -71.5t214 -191t126 -274.5t41 -323t-41 -316.5t-126 -259t-214 -175t-305 -64.5t-305.5 64.5t-213 175t-124.5 259t-41 316.5zM303 1761v68q0 88 61.5 136t186.5 48q51 0 90 -8t70.5 -24.5t60 -39 t59.5 -51.5q47 -43 89 -66.5t108 -23.5q70 0 102.5 25.5t32.5 66.5v53h129v-67q0 -88 -61.5 -136t-186.5 -48q-104 0 -165.5 31.5t-112.5 78.5q-53 51 -94.5 78t-108.5 27q-68 0 -99.5 -26t-31.5 -71v-51h-129zM442 782q0 -154 20.5 -274.5t63.5 -205.5t111 -130t160 -45 q94 0 161.5 45t110.5 130t63.5 206t20.5 274q0 154 -20.5 283t-63.5 221t-110.5 144.5t-161.5 52.5q-92 0 -160 -52.5t-111 -144.5t-63.5 -221t-20.5 -283z" />
<glyph unicode="&#xd6;" d="M113 0zM113 782q0 168 41 323t124.5 274.5t213 191t305.5 71.5t305 -71.5t214 -191t126 -274.5t41 -323t-41 -316.5t-126 -259t-214 -175t-305 -64.5t-305.5 64.5t-213 175t-124.5 259t-41 316.5zM430 1800v244h213v-244h-213zM442 782q0 -154 20.5 -274.5t63.5 -205.5 t111 -130t160 -45q94 0 161.5 45t110.5 130t63.5 206t20.5 274q0 154 -20.5 283t-63.5 221t-110.5 144.5t-161.5 52.5q-92 0 -160 -52.5t-111 -144.5t-63.5 -221t-20.5 -283zM950 1800v244h213v-244h-213z" />
<glyph unicode="&#xd7;" horiz-adv-x="1386" d="M213 1169l115 115l368 -364l369 364l113 -115l-367 -364l367 -363l-117 -112l-365 360l-366 -360l-115 112l365 363z" />
<glyph unicode="&#xd8;" d="M113 -121l192 295q-98 113 -145 269.5t-47 336.5q0 168 41 324t124.5 275.5t213 191t305.5 71.5q119 0 216 -33.5t175 -92.5l141 215h150l-201 -304q104 -123 154.5 -290.5t50.5 -354.5q0 -168 -41 -316.5t-126 -259t-214 -175t-307 -64.5q-123 0 -220.5 31t-175.5 90 l-137 -209h-149zM442 778q0 -98 8.5 -185t26.5 -159l578 879q-45 82 -108.5 126t-149.5 44q-92 0 -160 -51.5t-111 -144.5t-63.5 -223t-20.5 -286zM532 291q88 -164 265 -164q94 0 161.5 45t110.5 130t63.5 205.5t20.5 274.5q0 223 -43 387z" />
<glyph unicode="&#xd9;" horiz-adv-x="1738" d="M88 0zM88 1454v156h668v-156h-183v-979q0 -80 13.5 -145.5t47.5 -112.5t90 -72.5t142 -25.5t143.5 25.5t91.5 72.5t48 112.5t14 145.5v979h-194v156h680v-156h-195v-981q0 -104 -29.5 -196.5t-98.5 -161t-183.5 -108.5t-284.5 -40t-283.5 40t-183 108.5t-98.5 161 t-29 196.5v981h-176zM510 2029h254l335 -321h-196z" />
<glyph unicode="&#xda;" horiz-adv-x="1738" d="M88 0zM88 1454v156h668v-156h-183v-979q0 -80 13.5 -145.5t47.5 -112.5t90 -72.5t142 -25.5t143.5 25.5t91.5 72.5t48 112.5t14 145.5v979h-194v156h680v-156h-195v-981q0 -104 -29.5 -196.5t-98.5 -161t-183.5 -108.5t-284.5 -40t-283.5 40t-183 108.5t-98.5 161 t-29 196.5v981h-176zM625 1708l333 321h256l-395 -321h-194z" />
<glyph unicode="&#xdb;" horiz-adv-x="1738" d="M88 0zM88 1454v156h668v-156h-183v-979q0 -80 13.5 -145.5t47.5 -112.5t90 -72.5t142 -25.5t143.5 25.5t91.5 72.5t48 112.5t14 145.5v979h-194v156h680v-156h-195v-981q0 -104 -29.5 -196.5t-98.5 -161t-183.5 -108.5t-284.5 -40t-283.5 40t-183 108.5t-98.5 161 t-29 196.5v981h-176zM402 1671l446 373h31l446 -373h-192l-264 223h-8l-267 -223h-192z" />
<glyph unicode="&#xdc;" horiz-adv-x="1738" d="M88 0zM88 1454v156h668v-156h-183v-979q0 -80 13.5 -145.5t47.5 -112.5t90 -72.5t142 -25.5t143.5 25.5t91.5 72.5t48 112.5t14 145.5v979h-194v156h680v-156h-195v-981q0 -104 -29.5 -196.5t-98.5 -161t-183.5 -108.5t-284.5 -40t-283.5 40t-183 108.5t-98.5 161 t-29 196.5v981h-176zM496 1800v244h213v-244h-213zM1016 1800v244h213v-244h-213z" />
<glyph unicode="&#xdd;" horiz-adv-x="1708" d="M82 0zM82 1454v156h702v-156h-229l299 -487h8l293 487h-205v156h674v-156h-201l-417 -668v-630h227v-156h-768v156h231v618l-428 680h-186zM625 1708l333 321h256l-395 -321h-194z" />
<glyph unicode="&#xde;" d="M119 0v156h200v1298h-200v156h743v-156h-233v-180h200q182 0 312.5 -36t214.5 -100.5t124 -152.5t40 -192t-40 -188.5t-124 -144t-214 -92t-313 -32.5h-200v-180h237v-156h-747zM629 496h217q178 0 264 70.5t86 230.5q0 319 -350 319h-217v-620z" />
<glyph unicode="&#xdf;" horiz-adv-x="1720" d="M119 0v150h200v1087q0 217 146.5 317.5t449.5 100.5q610 0 611 -414q0 -127 -55.5 -205t-172.5 -125q68 -18 124.5 -59t97.5 -99.5t63.5 -129t22.5 -148.5q0 -94 -36 -183t-111 -159t-189.5 -111.5t-270.5 -41.5q-49 0 -107 5t-95 15v150q29 -6 77 -10.5t87 -4.5 q184 0 265 95.5t81 265.5q0 330 -293 329h-117v156h115q76 0 126 17.5t79.5 49t42 77.5t12.5 102q0 154 -82 217t-254 63q-170 0 -253 -59t-83 -195v-1253h-481z" />
<glyph unicode="&#xe0;" horiz-adv-x="1394" d="M90 0zM90 291q0 55 22.5 113.5t75 110.5t135.5 96t205 71l349 76v6q0 80 -16.5 134t-48.5 87t-78 46t-105 13q-123 0 -195 -50t-72 -148v-49h-210v49q0 84 37.5 149.5t104 109.5t158 67.5t197.5 23.5q96 0 187.5 -20.5t163 -66.5t114.5 -120t43 -182v-565q0 -59 31 -82 t78 -23q35 0 71 15v-152q-35 -14 -72.5 -21.5t-90.5 -7.5q-109 0 -179.5 34t-99.5 108q-72 -63 -162 -98t-217 -35q-109 0 -189.5 25.5t-133 68.5t-78 99t-25.5 118zM295 1595h254l335 -321h-196zM373 334q0 -96 53 -146.5t170 -50.5q92 0 158.5 31t122.5 88v377l-228 -53 q-80 -18 -133 -42t-85 -53.5t-45 -67.5t-13 -83z" />
<glyph unicode="&#xe1;" horiz-adv-x="1394" d="M90 0zM90 291q0 55 22.5 113.5t75 110.5t135.5 96t205 71l349 76v6q0 80 -16.5 134t-48.5 87t-78 46t-105 13q-123 0 -195 -50t-72 -148v-49h-210v49q0 84 37.5 149.5t104 109.5t158 67.5t197.5 23.5q96 0 187.5 -20.5t163 -66.5t114.5 -120t43 -182v-565q0 -59 31 -82 t78 -23q35 0 71 15v-152q-35 -14 -72.5 -21.5t-90.5 -7.5q-109 0 -179.5 34t-99.5 108q-72 -63 -162 -98t-217 -35q-109 0 -189.5 25.5t-133 68.5t-78 99t-25.5 118zM373 334q0 -96 53 -146.5t170 -50.5q92 0 158.5 31t122.5 88v377l-228 -53q-80 -18 -133 -42t-85 -53.5 t-45 -67.5t-13 -83zM426 1274l333 321h256l-395 -321h-194z" />
<glyph unicode="&#xe2;" horiz-adv-x="1394" d="M90 0zM90 291q0 55 22.5 113.5t75 110.5t135.5 96t205 71l349 76v6q0 80 -16.5 134t-48.5 87t-78 46t-105 13q-123 0 -195 -50t-72 -148v-49h-210v49q0 84 37.5 149.5t104 109.5t158 67.5t197.5 23.5q96 0 187.5 -20.5t163 -66.5t114.5 -120t43 -182v-565q0 -59 31 -82 t78 -23q35 0 71 15v-152q-35 -14 -72.5 -21.5t-90.5 -7.5q-109 0 -179.5 34t-99.5 108q-72 -63 -162 -98t-217 -35q-109 0 -189.5 25.5t-133 68.5t-78 99t-25.5 118zM191 1237l446 373h31l446 -373h-192l-264 223h-8l-267 -223h-192zM373 334q0 -96 53 -146.5t170 -50.5 q92 0 158.5 31t122.5 88v377l-228 -53q-80 -18 -133 -42t-85 -53.5t-45 -67.5t-13 -83z" />
<glyph unicode="&#xe3;" horiz-adv-x="1394" d="M90 0zM90 291q0 55 22.5 113.5t75 110.5t135.5 96t205 71l349 76v6q0 80 -16.5 134t-48.5 87t-78 46t-105 13q-123 0 -195 -50t-72 -148v-49h-210v49q0 84 37.5 149.5t104 109.5t158 67.5t197.5 23.5q96 0 187.5 -20.5t163 -66.5t114.5 -120t43 -182v-565q0 -59 31 -82 t78 -23q35 0 71 15v-152q-35 -14 -72.5 -21.5t-90.5 -7.5q-109 0 -179.5 34t-99.5 108q-72 -63 -162 -98t-217 -35q-109 0 -189.5 25.5t-133 68.5t-78 99t-25.5 118zM162 1327v68q0 88 61.5 136t186.5 48q51 0 90 -8t70.5 -24.5t60 -39t59.5 -51.5q47 -43 89 -66.5 t108 -23.5q70 0 102.5 25.5t32.5 66.5v53h129v-67q0 -88 -61.5 -136t-186.5 -48q-104 0 -165.5 31.5t-112.5 78.5q-53 51 -94.5 78t-108.5 27q-68 0 -99.5 -26t-31.5 -71v-51h-129zM373 334q0 -96 53 -146.5t170 -50.5q92 0 158.5 31t122.5 88v377l-228 -53 q-80 -18 -133 -42t-85 -53.5t-45 -67.5t-13 -83z" />
<glyph unicode="&#xe4;" horiz-adv-x="1394" d="M90 0zM90 291q0 55 22.5 113.5t75 110.5t135.5 96t205 71l349 76v6q0 80 -16.5 134t-48.5 87t-78 46t-105 13q-123 0 -195 -50t-72 -148v-49h-210v49q0 84 37.5 149.5t104 109.5t158 67.5t197.5 23.5q96 0 187.5 -20.5t163 -66.5t114.5 -120t43 -182v-565q0 -59 31 -82 t78 -23q35 0 71 15v-152q-35 -14 -72.5 -21.5t-90.5 -7.5q-109 0 -179.5 34t-99.5 108q-72 -63 -162 -98t-217 -35q-109 0 -189.5 25.5t-133 68.5t-78 99t-25.5 118zM279 1366v244h213v-244h-213zM373 334q0 -96 53 -146.5t170 -50.5q92 0 158.5 31t122.5 88v377l-228 -53 q-80 -18 -133 -42t-85 -53.5t-45 -67.5t-13 -83zM799 1366v244h213v-244h-213z" />
<glyph unicode="&#xe5;" horiz-adv-x="1394" d="M90 0zM90 291q0 55 22.5 113.5t75 110.5t135.5 96t205 71l349 76v6q0 80 -16.5 134t-48.5 87t-78 46t-105 13q-123 0 -195 -50t-72 -148v-49h-210v49q0 84 37.5 149.5t104 109.5t158 67.5t197.5 23.5q96 0 187.5 -20.5t163 -66.5t114.5 -120t43 -182v-565q0 -59 31 -82 t78 -23q35 0 71 15v-152q-35 -14 -72.5 -21.5t-90.5 -7.5q-109 0 -179.5 34t-99.5 108q-72 -63 -162 -98t-217 -35q-109 0 -189.5 25.5t-133 68.5t-78 99t-25.5 118zM373 334q0 -96 53 -146.5t170 -50.5q92 0 158.5 31t122.5 88v377l-228 -53q-80 -18 -133 -42t-85 -53.5 t-45 -67.5t-13 -83zM428 1452q0 84 64.5 141.5t160.5 57.5q47 0 88 -15.5t72 -42t49 -63.5t18 -78q0 -43 -18 -79t-49 -61.5t-72 -41t-88 -15.5q-96 0 -160.5 55.5t-64.5 141.5zM522 1450q0 -57 37 -94t94 -37t95 37t38 94t-38 97t-95 40t-94 -40t-37 -97z" />
<glyph unicode="&#xe6;" horiz-adv-x="2158" d="M90 291q0 55 22.5 113.5t75 110.5t135.5 96t205 71l349 76q-4 154 -58.5 220t-187.5 66q-123 0 -196 -50t-73 -148v-49h-210v49q0 84 37.5 149.5t104 109.5t158 67.5t195.5 23.5q129 0 234.5 -38t165.5 -128q78 84 188.5 125t234.5 41q133 0 240 -44t181.5 -120 t114.5 -177t40 -214q0 -23 -1 -40t-5 -40h-885q4 -207 85 -315.5t255 -108.5q63 0 118.5 14.5t95.5 42t63.5 66.5t23.5 88v33h211v-33q0 -88 -43 -156.5t-115.5 -115.5t-169 -71.5t-204.5 -24.5q-168 0 -292 57t-200 162q-39 -47 -85 -87t-102.5 -69t-127 -46t-156.5 -17 q-109 0 -187.5 25.5t-131 68.5t-78 99t-25.5 118zM373 336q0 -96 52 -147.5t165 -51.5q115 0 194.5 49.5t143.5 116.5q-25 59 -38 134t-13 196l-228 -53q-80 -18 -133 -42t-85 -53.5t-45 -66.5t-13 -82zM1163 696h617v15q0 70 -23.5 129t-63.5 102t-93.5 66.5t-110.5 23.5 q-70 0 -124 -27.5t-94 -73.5t-66.5 -107.5t-41.5 -127.5z" />
<glyph unicode="&#xe7;" horiz-adv-x="1292" d="M113 0zM113 590q0 143 40 255.5t111.5 190.5t172 119t222.5 41q102 0 178 -26.5t126 -67.5h4v74h227v-359h-231v55q0 31 -16.5 61t-48.5 53.5t-79 37.5t-108 14q-72 0 -131.5 -23.5t-100.5 -75.5t-63.5 -136t-22.5 -207q0 -459 332 -459q115 0 183.5 50.5t68.5 142.5v51 h211v-62q0 -78 -33 -140t-94.5 -106t-149.5 -68.5t-198 -24.5q-287 0 -443.5 160.5t-156.5 449.5zM367 -414l237 353h160l-172 -353h-225z" />
<glyph unicode="&#xe8;" horiz-adv-x="1396" d="M113 0zM113 578q0 152 46 267.5t127 193t189.5 117.5t233.5 40q133 0 239.5 -43t181 -119t114.5 -176t40 -217q0 -23 -1 -40t-5 -40h-885q4 -207 84 -315.5t254 -108.5q63 0 118.5 14.5t95.5 42t63.5 66.5t23.5 88v33h211v-33q0 -88 -43 -156.5t-115.5 -115.5t-169 -71.5 t-204.5 -24.5q-141 0 -253 41.5t-188.5 118.5t-116.5 187.5t-40 250.5zM361 1595h254l335 -321h-196zM399 696h619q0 160 -85 250t-226 90q-121 0 -204 -77.5t-104 -262.5z" />
<glyph unicode="&#xe9;" horiz-adv-x="1396" d="M113 0zM113 578q0 152 46 267.5t127 193t189.5 117.5t233.5 40q133 0 239.5 -43t181 -119t114.5 -176t40 -217q0 -23 -1 -40t-5 -40h-885q4 -207 84 -315.5t254 -108.5q63 0 118.5 14.5t95.5 42t63.5 66.5t23.5 88v33h211v-33q0 -88 -43 -156.5t-115.5 -115.5t-169 -71.5 t-204.5 -24.5q-141 0 -253 41.5t-188.5 118.5t-116.5 187.5t-40 250.5zM399 696h619q0 160 -85 250t-226 90q-121 0 -204 -77.5t-104 -262.5zM486 1274l333 321h256l-395 -321h-194z" />
<glyph unicode="&#xea;" horiz-adv-x="1396" d="M113 0zM113 578q0 152 46 267.5t127 193t189.5 117.5t233.5 40q133 0 239.5 -43t181 -119t114.5 -176t40 -217q0 -23 -1 -40t-5 -40h-885q4 -207 84 -315.5t254 -108.5q63 0 118.5 14.5t95.5 42t63.5 66.5t23.5 88v33h211v-33q0 -88 -43 -156.5t-115.5 -115.5t-169 -71.5 t-204.5 -24.5q-141 0 -253 41.5t-188.5 118.5t-116.5 187.5t-40 250.5zM248 1237l446 373h31l446 -373h-192l-264 223h-8l-267 -223h-192zM399 696h619q0 160 -85 250t-226 90q-121 0 -204 -77.5t-104 -262.5z" />
<glyph unicode="&#xeb;" horiz-adv-x="1396" d="M113 0zM113 578q0 152 46 267.5t127 193t189.5 117.5t233.5 40q133 0 239.5 -43t181 -119t114.5 -176t40 -217q0 -23 -1 -40t-5 -40h-885q4 -207 84 -315.5t254 -108.5q63 0 118.5 14.5t95.5 42t63.5 66.5t23.5 88v33h211v-33q0 -88 -43 -156.5t-115.5 -115.5t-169 -71.5 t-204.5 -24.5q-141 0 -253 41.5t-188.5 118.5t-116.5 187.5t-40 250.5zM346 1366v244h213v-244h-213zM399 696h619q0 160 -85 250t-226 90q-121 0 -204 -77.5t-104 -262.5zM866 1366v244h213v-244h-213z" />
<glyph unicode="&#xec;" horiz-adv-x="937" d="M49 0zM50 1595h254l335 -321h-196zM150 0v150h200v876h-200v150h483v-1026h201v-150h-684z" />
<glyph unicode="&#xed;" horiz-adv-x="892" d="M119 0v150h200v876h-200v150h483v-1026h201v-150h-684zM119 0zM248 1274l333 321h256l-395 -321h-194z" />
<glyph unicode="&#xee;" horiz-adv-x="978" d="M27 0zM27 1237l446 373h31l446 -373h-192l-264 223h-8l-267 -223h-192zM182 0v150h200v876h-200v150h483v-1026h201v-150h-684z" />
<glyph unicode="&#xef;" horiz-adv-x="849" d="M59 0zM60 1366v244h213v-244h-213zM94 0v150h200v876h-200v150h483v-1026h201v-150h-684zM580 1366v244h213v-244h-213z" />
<glyph unicode="&#xf0;" horiz-adv-x="1439" d="M113 549q0 96 22.5 193.5t83 176t163.5 129t267 50.5q98 0 192.5 -20.5t159.5 -65.5h9q-29 88 -75 172t-108 162l-491 -164l-37 100l449 152q-106 104 -246 176h233q104 -47 189 -117l344 117l39 -103l-293 -98q70 -78 126 -170t94 -195.5t58.5 -213t20.5 -220.5 q0 -125 -29 -238.5t-99.5 -200.5t-188 -139t-294.5 -52q-160 0 -272.5 44t-183 120.5t-102 180t-31.5 224.5zM393 543q0 -88 15.5 -161t51.5 -125t95 -82t147 -30q111 0 179.5 44t105.5 112t50.5 148.5t13.5 156.5q0 59 -6.5 118.5t-16.5 100.5q-59 51 -140 81t-175 30 q-96 0 -157.5 -31t-97.5 -84t-50.5 -124.5t-14.5 -153.5z" />
<glyph unicode="&#xf1;" horiz-adv-x="1701" d="M119 0v150h198v876h-198v150h465v-117h8q121 70 228.5 103.5t226.5 33.5q186 0 272 -79t86 -226v-741h190v-150h-663v150h188v714q0 72 -40 110t-130 38q-78 0 -170 -30t-182 -85v-747h184v-150h-663zM119 0zM314 1327v68q0 88 61.5 136t186.5 48q51 0 90 -8t70.5 -24.5 t60 -39t59.5 -51.5q47 -43 89 -66.5t108 -23.5q70 0 102.5 25.5t32.5 66.5v53h129v-67q0 -88 -61.5 -136t-186.5 -48q-104 0 -165.5 31.5t-112.5 78.5q-53 51 -94.5 78t-108.5 27q-68 0 -99.5 -26t-31.5 -71v-51h-129z" />
<glyph unicode="&#xf2;" horiz-adv-x="1427" d="M113 0zM113 571q0 123 35.5 236t110.5 200t187.5 138t266.5 51t266.5 -51t187 -138t110.5 -200t36 -236t-36 -230.5t-110.5 -188t-187.5 -126.5t-266 -46q-154 0 -266.5 46t-187.5 126.5t-110.5 188.5t-35.5 230zM361 1595h254l335 -321h-196zM393 573q0 -201 76 -314.5 t244 -113.5q166 0 243.5 112t77.5 316q0 100 -19.5 185.5t-58 145t-100 93t-143.5 33.5q-84 0 -144.5 -33.5t-99.5 -94t-57.5 -144.5t-18.5 -185z" />
<glyph unicode="&#xf3;" horiz-adv-x="1427" d="M113 0zM113 571q0 123 35.5 236t110.5 200t187.5 138t266.5 51t266.5 -51t187 -138t110.5 -200t36 -236t-36 -230.5t-110.5 -188t-187.5 -126.5t-266 -46q-154 0 -266.5 46t-187.5 126.5t-110.5 188.5t-35.5 230zM393 573q0 -201 76 -314.5t244 -113.5q166 0 243.5 112 t77.5 316q0 100 -19.5 185.5t-58 145t-100 93t-143.5 33.5q-84 0 -144.5 -33.5t-99.5 -94t-57.5 -144.5t-18.5 -185zM480 1274l333 321h256l-395 -321h-194z" />
<glyph unicode="&#xf4;" horiz-adv-x="1427" d="M113 0zM113 571q0 123 35.5 236t110.5 200t187.5 138t266.5 51t266.5 -51t187 -138t110.5 -200t36 -236t-36 -230.5t-110.5 -188t-187.5 -126.5t-266 -46q-154 0 -266.5 46t-187.5 126.5t-110.5 188.5t-35.5 230zM254 1237l446 373h31l446 -373h-192l-264 223h-8 l-267 -223h-192zM393 573q0 -201 76 -314.5t244 -113.5q166 0 243.5 112t77.5 316q0 100 -19.5 185.5t-58 145t-100 93t-143.5 33.5q-84 0 -144.5 -33.5t-99.5 -94t-57.5 -144.5t-18.5 -185z" />
<glyph unicode="&#xf5;" horiz-adv-x="1427" d="M113 0zM113 571q0 123 35.5 236t110.5 200t187.5 138t266.5 51t266.5 -51t187 -138t110.5 -200t36 -236t-36 -230.5t-110.5 -188t-187.5 -126.5t-266 -46q-154 0 -266.5 46t-187.5 126.5t-110.5 188.5t-35.5 230zM221 1327v68q0 88 61.5 136t186.5 48q51 0 90 -8 t70.5 -24.5t60 -39t59.5 -51.5q47 -43 89 -66.5t108 -23.5q70 0 102.5 25.5t32.5 66.5v53h129v-67q0 -88 -61.5 -136t-186.5 -48q-104 0 -165.5 31.5t-112.5 78.5q-53 51 -94.5 78t-108.5 27q-68 0 -99.5 -26t-31.5 -71v-51h-129zM393 573q0 -201 76 -314.5t244 -113.5 q166 0 243.5 112t77.5 316q0 100 -19.5 185.5t-58 145t-100 93t-143.5 33.5q-84 0 -144.5 -33.5t-99.5 -94t-57.5 -144.5t-18.5 -185z" />
<glyph unicode="&#xf6;" horiz-adv-x="1427" d="M113 0zM113 571q0 123 35.5 236t110.5 200t187.5 138t266.5 51t266.5 -51t187 -138t110.5 -200t36 -236t-36 -230.5t-110.5 -188t-187.5 -126.5t-266 -46q-154 0 -266.5 46t-187.5 126.5t-110.5 188.5t-35.5 230zM344 1366v244h213v-244h-213zM393 573q0 -201 76 -314.5 t244 -113.5q166 0 243.5 112t77.5 316q0 100 -19.5 185.5t-58 145t-100 93t-143.5 33.5q-84 0 -144.5 -33.5t-99.5 -94t-57.5 -144.5t-18.5 -185zM864 1366v244h213v-244h-213z" />
<glyph unicode="&#xf7;" horiz-adv-x="1349" d="M119 174zM119 729v156h1110v-156h-1110zM573 174v299h238v-299h-238zM573 1118v299h238v-299h-238z" />
<glyph unicode="&#xf8;" horiz-adv-x="1433" d="M113 571q0 123 35.5 236t109.5 200t186.5 138t266.5 51q98 0 179 -21.5t146 -60.5l133 182h150l-186 -256q92 -88 136 -210.5t44 -260.5q0 -123 -36 -230.5t-110.5 -187t-189.5 -125.5t-270 -46q-174 0 -297 61l-117 -162h-150l164 227q-98 82 -146 202t-48 263zM393 571 q0 -84 12.5 -152.5t40.5 -121.5l472 651q-39 39 -90 60.5t-117 21.5q-82 0 -142.5 -33.5t-99.5 -94t-57.5 -145.5t-18.5 -186zM524 201q74 -55 187 -56q170 0 246.5 112.5t76.5 315.5q0 158 -45 267z" />
<glyph unicode="&#xf9;" horiz-adv-x="1660" d="M78 0zM78 1026v150h475v-865q0 -147 172 -147q74 0 165 27.5t189 87.5v747h-205v150h486v-1026h196v-150h-464v119q-113 -63 -224.5 -101t-242.5 -38q-180 0 -266.5 77.5t-86.5 227.5v741h-194zM430 1595h254l335 -321h-196z" />
<glyph unicode="&#xfa;" horiz-adv-x="1660" d="M78 0zM78 1026v150h475v-865q0 -147 172 -147q74 0 165 27.5t189 87.5v747h-205v150h486v-1026h196v-150h-464v119q-113 -63 -224.5 -101t-242.5 -38q-180 0 -266.5 77.5t-86.5 227.5v741h-194zM523 1274l333 321h256l-395 -321h-194z" />
<glyph unicode="&#xfb;" horiz-adv-x="1660" d="M78 0zM78 1026v150h475v-865q0 -147 172 -147q74 0 165 27.5t189 87.5v747h-205v150h486v-1026h196v-150h-464v119q-113 -63 -224.5 -101t-242.5 -38q-180 0 -266.5 77.5t-86.5 227.5v741h-194zM320 1237l446 373h31l446 -373h-192l-264 223h-8l-267 -223h-192z" />
<glyph unicode="&#xfc;" horiz-adv-x="1660" d="M78 0zM78 1026v150h475v-865q0 -147 172 -147q74 0 165 27.5t189 87.5v747h-205v150h486v-1026h196v-150h-464v119q-113 -63 -224.5 -101t-242.5 -38q-180 0 -266.5 77.5t-86.5 227.5v741h-194zM414 1366v244h213v-244h-213zM934 1366v244h213v-244h-213z" />
<glyph unicode="&#xfd;" horiz-adv-x="1630" d="M66 0zM66 1026v150h655v-150h-207l301 -643h8l312 643h-177v150h605v-150h-164l-598 -1184q-70 -137 -180.5 -196.5t-278.5 -59.5q-45 0 -87 4t-87 13v149q35 -4 64.5 -7t58.5 -3q100 0 175 41t120 133l106 213l-471 897h-155zM584 1274l333 321h256l-395 -321h-194z" />
<glyph unicode="&#xfe;" horiz-adv-x="1517" d="M39 -244h186v1704h-186v150h469v-539q76 53 175 89t222 36q111 0 201 -36t153.5 -109.5t97.5 -186t34 -266.5q0 -168 -40 -285.5t-111 -191.5t-170 -107.5t-216 -33.5q-113 0 -198 26.5t-148 69.5v-320h207v-149h-676v149zM508 252q53 -49 125 -71.5t145 -22.5 q156 0 244 100t88 330q0 213 -79 321.5t-230 108.5q-78 0 -156 -27.5t-137 -77.5v-661z" />
<glyph unicode="&#xff;" horiz-adv-x="1630" d="M66 0zM66 1026v150h655v-150h-207l301 -643h8l312 643h-177v150h605v-150h-164l-598 -1184q-70 -137 -180.5 -196.5t-278.5 -59.5q-45 0 -87 4t-87 13v149q35 -4 64.5 -7t58.5 -3q100 0 175 41t120 133l106 213l-471 897h-155zM455 1366v244h213v-244h-213zM975 1366v244 h213v-244h-213z" />
<glyph unicode="&#x152;" horiz-adv-x="2209" d="M113 782q0 178 44 330t135 262.5t231.5 173t334.5 62.5h1221v-461h-219v305h-539v-528h733v-168h-733v-602h545v368h219v-524h-1227q-195 0 -335 55.5t-231 157.5t-135 246.5t-44 322.5zM440 782q0 -168 24.5 -286.5t76 -194.5t127 -110.5t178.5 -34.5h164v1298h-164 q-406 0 -406 -672z" />
<glyph unicode="&#x153;" horiz-adv-x="2031" d="M104 571q0 123 32 236t97.5 200t166 138t237.5 51q135 0 231.5 -50t159.5 -136q70 92 172.5 139t224.5 47q123 0 216.5 -43t157 -119t97 -179t35.5 -226v-34.5t-2 -33.5h-760q4 -207 66.5 -315.5t206.5 -108.5q104 0 172.5 56.5t68.5 154.5v33h209v-33 q0 -88 -37.5 -156.5t-102 -115.5t-149.5 -71.5t-182 -24.5q-131 0 -228 44t-163 126q-63 -78 -160.5 -124t-232.5 -46q-137 0 -237.5 46t-166 126.5t-97.5 188.5t-32 230zM383 573q0 -203 59.5 -315.5t194.5 -112.5q133 0 193.5 113t60.5 315q0 100 -15.5 184.5t-46 145 t-78.5 94t-114 33.5q-68 0 -116 -33.5t-78.5 -94t-45 -144.5t-14.5 -185zM1174 696h487q0 160 -65.5 250t-178.5 90q-98 0 -163.5 -77.5t-79.5 -262.5z" />
<glyph unicode="&#x178;" horiz-adv-x="1708" d="M82 0zM82 1454v156h702v-156h-229l299 -487h8l293 487h-205v156h674v-156h-201l-417 -668v-630h227v-156h-768v156h231v618l-428 680h-186zM492 1800v244h213v-244h-213zM1012 1800v244h213v-244h-213z" />
<glyph unicode="&#x2c6;" horiz-adv-x="1163" d="M119 1237l446 373h31l446 -373h-192l-264 223h-8l-267 -223h-192z" />
<glyph unicode="&#x2dc;" horiz-adv-x="1228" d="M119 1327v68q0 88 61.5 136t186.5 48q51 0 90 -8t70.5 -24.5t60 -39t59.5 -51.5q47 -43 89 -66.5t108 -23.5q70 0 102.5 25.5t32.5 66.5v53h129v-67q0 -88 -61.5 -136t-186.5 -48q-104 0 -165.5 31.5t-112.5 78.5q-53 51 -94.5 78t-108.5 27q-68 0 -99.5 -26t-31.5 -71 v-51h-129z" />
<glyph unicode="&#x2000;" horiz-adv-x="1022" />
<glyph unicode="&#x2001;" horiz-adv-x="2044" />
<glyph unicode="&#x2002;" horiz-adv-x="1022" />
<glyph unicode="&#x2003;" horiz-adv-x="2044" />
<glyph unicode="&#x2004;" horiz-adv-x="681" />
<glyph unicode="&#x2005;" horiz-adv-x="511" />
<glyph unicode="&#x2006;" horiz-adv-x="340" />
<glyph unicode="&#x2007;" horiz-adv-x="340" />
<glyph unicode="&#x2008;" horiz-adv-x="255" />
<glyph unicode="&#x2009;" horiz-adv-x="408" />
<glyph unicode="&#x200a;" horiz-adv-x="113" />
<glyph unicode="&#x2010;" horiz-adv-x="1064" d="M119 678v166h825v-166h-825z" />
<glyph unicode="&#x2011;" horiz-adv-x="1064" d="M119 678v166h825v-166h-825z" />
<glyph unicode="&#x2012;" horiz-adv-x="1064" d="M119 678v166h825v-166h-825z" />
<glyph unicode="&#x2013;" horiz-adv-x="1525" d="M119 678v166h1286v-166h-1286z" />
<glyph unicode="&#x2014;" horiz-adv-x="2324" d="M88 678v166h2146v-166h-2146z" />
<glyph unicode="&#x2018;" horiz-adv-x="423" d="M80 975l121 635h133v-635h-254z" />
<glyph unicode="&#x2019;" horiz-adv-x="436" d="M96 975v635h252l-119 -635h-133z" />
<glyph unicode="&#x201a;" horiz-adv-x="436" d="M96 -315v634h252l-119 -634h-133z" />
<glyph unicode="&#x201c;" horiz-adv-x="784" d="M80 975l121 635h133v-635h-254zM80 975zM440 975l121 635h133v-635h-254z" />
<glyph unicode="&#x201d;" horiz-adv-x="796" d="M96 975v635h252l-119 -635h-133zM96 975zM456 975v635h252l-119 -635h-133z" />
<glyph unicode="&#x201e;" horiz-adv-x="796" d="M96 0zM96 -315v634h252l-119 -634h-133zM456 -315v634h252l-119 -634h-133z" />
<glyph unicode="&#x2022;" horiz-adv-x="677" d="M113 793q0 49 13 94t42 79.5t71 55t101 20.5q57 0 100 -20.5t71 -55t41 -79.5t13 -94q0 -98 -54 -167t-171 -69t-172 68.5t-55 167.5z" />
<glyph unicode="&#x2026;" horiz-adv-x="2000" d="M192 0v299h238v-299h-238zM193 0zM880 0v299h238v-299h-238zM1571 0v299h238v-299h-238z" />
<glyph unicode="&#x202f;" horiz-adv-x="408" />
<glyph unicode="&#x2039;" horiz-adv-x="688" d="M57 586l363 590h211l-369 -590l369 -586h-211z" />
<glyph unicode="&#x203a;" horiz-adv-x="688" d="M57 0l369 586l-369 590h211l363 -590l-363 -586h-211z" />
<glyph unicode="&#x205f;" horiz-adv-x="511" />
<glyph unicode="&#x20ac;" horiz-adv-x="1517" d="M57 606l43 119h162v66v50t2 52h-207l43 115h174q18 131 60.5 246.5t115 201.5t180 136t255.5 50q106 0 200.5 -27.5t163 -81.5t108.5 -135t40 -188v-55h-195v55q0 70 -23.5 120t-62.5 84t-92 50.5t-111 16.5q-88 0 -149.5 -35t-103.5 -97.5t-64.5 -149.5t-32.5 -191h821 l-41 -115h-788v-168h713l-41 -119h-666q8 -109 30.5 -196.5t63.5 -150t102.5 -96.5t151.5 -34q61 0 114.5 16.5t93.5 50t62.5 84t22.5 119.5v56h195v-56q0 -106 -40 -187t-109.5 -135t-164 -82t-202.5 -28q-152 0 -260.5 49.5t-181 135.5t-113.5 202.5t-56 251.5h-213z" />
<glyph unicode="&#x2122;" horiz-adv-x="1867" d="M119 1354v256h663v-256h-108v147h-148v-614h88v-109h-325v109h86v614h-146v-147h-110zM901 778v109h62v614h-62v109h238l186 -512h6l187 512h229v-109h-61v-614h61v-109h-231v109h45v469h-7l-223 -578h-12l-225 578h-4v-469h45v-109h-234z" />
<glyph unicode="&#x25fc;" horiz-adv-x="1177" d="M0 0v1178h1178v-1178h-1178z" />
</font>
</defs>
</svg>
