<?xml version="1.0" encoding="UTF-8" standalone="no"?>
<!-- Generator: Adobe Illustrator 13.0.0, SVG Export Plug-In . SVG Version: 6.00 Build 14948)  -->

<svg
   xmlns:dc="http://purl.org/dc/elements/1.1/"
   xmlns:cc="http://creativecommons.org/ns#"
   xmlns:rdf="http://www.w3.org/1999/02/22-rdf-syntax-ns#"
   xmlns:svg="http://www.w3.org/2000/svg"
   xmlns="http://www.w3.org/2000/svg"
   xmlns:sodipodi="http://sodipodi.sourceforge.net/DTD/sodipodi-0.dtd"
   xmlns:inkscape="http://www.inkscape.org/namespaces/inkscape"
   version="1.1"
   id="Layer_1"
   x="0px"
   y="0px"
   width="460"
   height="360"
   viewBox="0 0 460 360.00001"
   enable-background="new 0 0 458.375 358.093"
   xml:space="preserve"
   inkscape:version="0.48.2 r9819"
   sodipodi:docname="desulttv2.svg"><metadata
   id="metadata3623"><rdf:RDF><cc:Work
       rdf:about=""><dc:format>image/svg+xml</dc:format><dc:type
         rdf:resource="http://purl.org/dc/dcmitype/StillImage" /></cc:Work></rdf:RDF></metadata><defs
   id="defs3621" /><sodipodi:namedview
   pagecolor="#ffffff"
   bordercolor="#666666"
   borderopacity="1"
   objecttolerance="10"
   gridtolerance="10"
   guidetolerance="10"
   inkscape:pageopacity="0"
   inkscape:pageshadow="2"
   inkscape:window-width="1920"
   inkscape:window-height="1058"
   id="namedview3619"
   showgrid="false"
   inkscape:zoom="1.5325876"
   inkscape:cx="188.73025"
   inkscape:cy="143.40202"
   inkscape:window-x="-8"
   inkscape:window-y="-8"
   inkscape:window-maximized="1"
   inkscape:current-layer="Layer_1" />
<ellipse
   cx="229.188"
   cy="337.93799"
   rx="229.188"
   ry="20.155001"
   id="ellipse3552"
   sodipodi:cx="229.188"
   sodipodi:cy="337.93799"
   sodipodi:rx="229.188"
   sodipodi:ry="20.155001"
   style="opacity:0.3"
   transform="translate(0,1.9070423)" />
<polygon
   points="362.54,335.679 362.54,282.2 95.835,282.2 95.835,338.68 362.54,338.68 "
   id="polygon3554"
   transform="translate(0,1.9070423)" />
<rect
   x="98.834999"
   y="287.10901"
   width="260.70401"
   height="50.479"
   id="rect3556"
   style="fill:#8f8587" />
<g
   id="g3558"
   transform="translate(0,1.9070423)">
	<g
   id="g3560">
		<circle
   cx="119.438"
   cy="322.54001"
   r="9.25"
   id="circle3562"
   sodipodi:cx="119.438"
   sodipodi:cy="322.54001"
   sodipodi:rx="9.25"
   sodipodi:ry="9.25"
   d="m 128.688,322.54001 c 0,5.10863 -4.14136,9.25 -9.25,9.25 -5.10863,0 -9.25,-4.14137 -9.25,-9.25 0,-5.10864 4.14137,-9.25 9.25,-9.25 5.10864,0 9.25,4.14136 9.25,9.25 z" />
		<circle
   cx="144.938"
   cy="322.54001"
   r="9.25"
   id="circle3564"
   sodipodi:cx="144.938"
   sodipodi:cy="322.54001"
   sodipodi:rx="9.25"
   sodipodi:ry="9.25"
   d="m 154.188,322.54001 c 0,5.10863 -4.14136,9.25 -9.25,9.25 -5.10863,0 -9.25,-4.14137 -9.25,-9.25 0,-5.10864 4.14137,-9.25 9.25,-9.25 5.10864,0 9.25,4.14136 9.25,9.25 z" />
		<circle
   cx="170.438"
   cy="322.54001"
   r="9.25"
   id="circle3566"
   sodipodi:cx="170.438"
   sodipodi:cy="322.54001"
   sodipodi:rx="9.25"
   sodipodi:ry="9.25"
   d="m 179.688,322.54001 c 0,5.10863 -4.14136,9.25 -9.25,9.25 -5.10863,0 -9.25,-4.14137 -9.25,-9.25 0,-5.10864 4.14137,-9.25 9.25,-9.25 5.10864,0 9.25,4.14136 9.25,9.25 z" />
	</g>
	<g
   id="g3568">
		<circle
   cx="287.93799"
   cy="322.54001"
   r="9.25"
   id="circle3570"
   sodipodi:cx="287.93799"
   sodipodi:cy="322.54001"
   sodipodi:rx="9.25"
   sodipodi:ry="9.25"
   d="m 297.18799,322.54001 c 0,5.10863 -4.14137,9.25 -9.25,9.25 -5.10864,0 -9.25,-4.14137 -9.25,-9.25 0,-5.10864 4.14136,-9.25 9.25,-9.25 5.10863,0 9.25,4.14136 9.25,9.25 z" />
		<circle
   cx="313.43799"
   cy="322.54001"
   r="9.25"
   id="circle3572"
   sodipodi:cx="313.43799"
   sodipodi:cy="322.54001"
   sodipodi:rx="9.25"
   sodipodi:ry="9.25"
   d="m 322.68799,322.54001 c 0,5.10863 -4.14137,9.25 -9.25,9.25 -5.10864,0 -9.25,-4.14137 -9.25,-9.25 0,-5.10864 4.14136,-9.25 9.25,-9.25 5.10863,0 9.25,4.14136 9.25,9.25 z" />
		<circle
   cx="338.93799"
   cy="322.54001"
   r="9.25"
   id="circle3574"
   sodipodi:cx="338.93799"
   sodipodi:cy="322.54001"
   sodipodi:rx="9.25"
   sodipodi:ry="9.25"
   d="m 348.18799,322.54001 c 0,5.10863 -4.14137,9.25 -9.25,9.25 -5.10864,0 -9.25,-4.14137 -9.25,-9.25 0,-5.10864 4.14136,-9.25 9.25,-9.25 5.10863,0 9.25,4.14136 9.25,9.25 z" />
	</g>
</g>
<polygon
   points="430.024,313.88 430.026,0 28.348,0 28.348,2.5 28.348,8 28.348,324.375 430.024,324.375 "
   id="polygon3576"
   transform="translate(0,1.9070423)" />
<radialGradient
   id="SVGID_1_"
   cx="151.209"
   cy="-9.7109003"
   r="399.38239"
   gradientUnits="userSpaceOnUse">
	<stop
   offset="0"
   style="stop-color:#8F8587"
   id="stop3579" />
	<stop
   offset="1"
   style="stop-color:#000000"
   id="stop3581" />
</radialGradient>
<polygon
   points="427.525,321.877 427.525,313.879 427.525,2.5 30.849,2.5 30.849,8 30.849,321.877 "
   id="polygon3583"
   style="fill:url(#SVGID_1_)"
   transform="translate(0,1.9070423)" />
<polygon
   points="422.025,313.879 422.025,8.001 36.349,8.001 36.349,316.377 422.025,316.377 "
   id="polygon3585"
   transform="translate(0,1.9070423)" />
<radialGradient
   id="SVGID_2_"
   cx="171.7666"
   cy="473.37109"
   r="714.20508"
   gradientUnits="userSpaceOnUse"
   gradientTransform="translate(0,1.9070423)">
	<stop
   offset="0"
   style="stop-color:#8CBF00"
   id="stop3588" />
	<stop
   offset="1"
   style="stop-color:#000000"
   id="stop3590" />
</radialGradient>
<rect
   x="38.849998"
   y="12.407043"
   width="380.67599"
   height="303.379"
   id="rect3592"
   style="fill:url(#SVGID_2_)" />
<path
   d="m 396.987,54.907045 -1.491,0.147 1.491,-0.163 c -0.208,-1.95 -0.714,-3.36 -1.173,-4.467 -1.689,-3.782 -3.841,-6.306 -6.36,-8.783 -1.314,-1.243 -2.756,-2.429 -4.519,-3.504 -1.733,-1.015 -3.97,-2.196 -7.33,-2.546 -37.068,-3.355 -91.786,-4.951 -146.762,-4.953 -56.024,0.002 -112.089,1.663 -149.713,4.948 -3.378,0.312 -6.058,1.509 -8.155,2.792 -3.158,1.975 -5.416,4.347 -7.219,6.806 -0.913,1.258 -1.71,2.571 -2.391,4.013 -0.669,1.435 -1.29,3.06 -1.61,5.172 -1.322,9.167 -2.172,24.22 -2.784,43.095 -0.597,18.813965 -0.893,41.171965 -0.893,63.852965 0,22.678 0.299,45.668 0.893,65.721 0.602,20.078 1.48,37.105 2.729,48.385 0.278,2.383 0.947,4.419 1.826,6.339 1.349,2.877 3.294,5.674 6.168,8.105 2.865,2.424 6.938,4.496 11.797,4.763 35.054,1.959 94.381,2.919 152.336,2.924 57.974,-0.007 114.246,-0.961 143.49,-2.933 3.69,-0.273 6.449,-1.618 8.536,-2.931 3.164,-2.054 5.373,-4.442 7.161,-6.871 0.901,-1.25 1.694,-2.542 2.384,-3.995 0.646,-1.433 1.373,-3.143 1.608,-5.782 2.207,-29.163 3.28,-72.9 3.287,-115.046 -0.009,-42.18 -1.066,-82.425965 -3.306,-105.088965 z"
   id="path3594"
   inkscape:connector-curvature="0" />
<linearGradient
   id="SVGID_3_"
   gradientUnits="userSpaceOnUse"
   x1="130.7021"
   y1="-21.929199"
   x2="341.02051"
   y2="373.5137"
   gradientTransform="translate(0,1.9070423)">
	<stop
   offset="0"
   style="stop-color:#8F8587"
   id="stop3597" />
	<stop
   offset="1"
   style="stop-color:#000000"
   id="stop3599" />
</linearGradient>
<path
   d="m 395.496,55.054045 c -0.193,-1.784 -0.631,-2.995 -1.068,-4.059 -1.584,-3.53 -3.559,-5.853 -6.025,-8.283 -1.242,-1.174 -2.592,-2.284 -4.246,-3.293 -1.676,-0.974 -3.613,-2.004 -6.709,-2.336 -36.961,-3.345 -91.66,-4.942 -146.604,-4.944 -55.99,0.002 -112.035,1.663 -149.582,4.942 -3.09,0.287 -5.529,1.373 -7.504,2.58 -2.957,1.852 -5.064,4.061 -6.791,6.413 -0.859,1.186 -1.605,2.415 -2.244,3.766 -0.631,1.362 -1.186,2.812 -1.484,4.759 -1.303,9.024 -2.156,24.065 -2.766,42.915 -0.598,18.791965 -0.893,41.137965 -0.893,63.804965 0,22.665 0.297,45.642 0.893,65.675 0.6,20.058 1.479,37.067 2.721,48.264 0.258,2.2 0.865,4.061 1.699,5.882 1.268,2.701 3.078,5.301 5.773,7.583 2.656,2.249 6.439,4.169 10.908,4.411 34.996,1.956 94.32,2.918 152.256,2.921 57.951,-0.005 114.227,-0.96 143.389,-2.928 3.373,-0.255 5.855,-1.462 7.842,-2.706 2.963,-1.927 5.029,-4.154 6.748,-6.489 0.85,-1.18 1.59,-2.386 2.236,-3.748 0.623,-1.396 1.244,-2.834 1.471,-5.278 2.201,-29.066 3.275,-72.788 3.279,-114.908 -0.008,-42.151 -1.07,-82.390965 -3.299,-104.943965 z"
   id="path3601"
   inkscape:connector-curvature="0"
   style="fill:url(#SVGID_3_)" />
<g
   id="g3603"
   transform="translate(0,1.9070423)">
	<g
   id="g3605">
		<path
   d="m 73.134,272.244 c 0.373,3.359 3.783,8.708 9,9 69.193,3.873 237.193,3.873 294.41,0 4.16,-0.281 8.803,-6.395 9,-9 4.334,-57.188 4.334,-174.518 0,-218.107 -0.266,-2.686 -5.631,-8.695 -9,-9 -73.49,-6.662 -221.07,-6.415 -294.41,0 -4.232,0.37 -8.551,5.924 -9,9 -4.738,32.443 -4.738,175.585 0,218.107 z"
   id="path3607"
   inkscape:connector-curvature="0" />
	</g>
</g>
<g
   id="g3609"
   transform="translate(0,1.9070423)">
	<circle
   cx="363.71799"
   cy="304.17899"
   r="4.1440001"
   id="circle3611"
   sodipodi:cx="363.71799"
   sodipodi:cy="304.17899"
   sodipodi:rx="4.1440001"
   sodipodi:ry="4.1440001"
   d="m 367.86199,304.17899 c 0,2.28866 -1.85533,4.144 -4.144,4.144 -2.28867,0 -4.144,-1.85534 -4.144,-4.144 0,-2.28867 1.85533,-4.144 4.144,-4.144 2.28867,0 4.144,1.85533 4.144,4.144 z" />
	<circle
   cx="349.90799"
   cy="304.17899"
   r="4.1440001"
   id="circle3613"
   sodipodi:cx="349.90799"
   sodipodi:cy="304.17899"
   sodipodi:rx="4.1440001"
   sodipodi:ry="4.1440001"
   d="m 354.05199,304.17899 c 0,2.28866 -1.85533,4.144 -4.144,4.144 -2.28867,0 -4.144,-1.85534 -4.144,-4.144 0,-2.28867 1.85533,-4.144 4.144,-4.144 2.28867,0 4.144,1.85533 4.144,4.144 z" />
	<circle
   cx="336.09698"
   cy="304.17899"
   r="4.1440001"
   id="circle3615"
   sodipodi:cx="336.09698"
   sodipodi:cy="304.17899"
   sodipodi:rx="4.1440001"
   sodipodi:ry="4.1440001"
   d="m 340.24098,304.17899 c 0,2.28866 -1.85533,4.144 -4.144,4.144 -2.28866,0 -4.144,-1.85534 -4.144,-4.144 0,-2.28867 1.85534,-4.144 4.144,-4.144 2.28867,0 4.144,1.85533 4.144,4.144 z" />
	<circle
   cx="322.28699"
   cy="304.17899"
   r="4.1440001"
   id="circle3617"
   sodipodi:cx="322.28699"
   sodipodi:cy="304.17899"
   sodipodi:rx="4.1440001"
   sodipodi:ry="4.1440001"
   d="m 326.43099,304.17899 c 0,2.28866 -1.85533,4.144 -4.144,4.144 -2.28867,0 -4.144,-1.85534 -4.144,-4.144 0,-2.28867 1.85533,-4.144 4.144,-4.144 2.28867,0 4.144,1.85533 4.144,4.144 z" />
</g>
</svg>